<?xml version="1.0" standalone="no"?>
<!DOCTYPE svg PUBLIC "-//W3C//DTD SVG 20010904//EN"
 "http://www.w3.org/TR/2001/REC-SVG-20010904/DTD/svg10.dtd">
<svg version="1.0" xmlns="http://www.w3.org/2000/svg"
 width="1218.000000pt" height="1218.000000pt" viewBox="0 0 1218.000000 1218.000000"
 preserveAspectRatio="xMidYMid meet">
<metadata>
Created by potrace 1.14, written by Peter Selinger 2001-2017
</metadata>
<g transform="translate(0.000000,1218.000000) scale(0.100000,-0.100000)"
fill="#000000" stroke="none">
<path d="M6250 11579 c-38 -11 -59 -14 -67 -7 -8 6 -13 7 -13 1 0 -5 -18 -21
-40 -36 -33 -21 -38 -22 -30 -7 5 10 15 20 22 23 7 2 10 7 7 11 -8 9 -89 -16
-89 -27 0 -5 10 -5 21 -2 15 5 19 4 14 -4 -4 -7 -1 -18 5 -26 18 -21 3 -18
-30 5 -27 19 -29 20 -40 3 -10 -16 -11 -16 -7 5 4 14 0 22 -9 22 -8 0 -13 -5
-11 -11 1 -6 -4 -14 -12 -17 -10 -3 -11 0 -5 9 6 12 5 12 -8 1 -9 -7 -21 -26
-28 -42 -13 -32 -30 -40 -30 -14 0 8 5 12 10 9 6 -3 10 2 10 11 0 16 -1 16
-18 1 -15 -13 -21 -14 -31 -4 -10 9 -16 7 -32 -12 -19 -23 -19 -23 -19 -2 0
22 -14 28 -25 11 -3 -5 -11 -10 -16 -10 -6 0 -7 5 -3 12 4 7 3 8 -4 4 -6 -4
-8 -14 -5 -24 3 -9 3 -14 -2 -10 -11 10 -45 -10 -45 -27 0 -8 9 -29 20 -47 30
-50 24 -56 -10 -10 -31 44 -45 51 -53 30 -3 -7 -6 -2 -6 11 -1 20 -3 21 -16
11 -8 -7 -15 -24 -15 -39 0 -19 -3 -22 -9 -12 -6 9 -15 11 -27 6 -11 -5 -26
-9 -34 -9 -8 -1 -16 -9 -18 -20 -2 -10 0 -16 6 -12 6 4 8 -3 4 -16 -5 -20 -6
-21 -12 -3 -6 18 -7 18 -17 2 -7 -14 -9 -5 -8 32 1 28 -3 55 -9 60 -8 7 -10
-1 -8 -30 4 -33 1 -39 -15 -39 -10 0 -26 -12 -35 -27 -10 -16 -18 -22 -18 -14
0 11 -3 11 -16 0 -15 -12 -16 -11 -11 6 3 11 9 34 12 50 4 25 4 26 -4 9 -5
-12 -14 -25 -20 -29 -6 -3 -11 -16 -11 -28 0 -13 -12 -30 -29 -42 -17 -11 -35
-29 -41 -40 -10 -20 -10 -20 -7 1 5 22 -8 54 -21 54 -5 0 -8 -15 -9 -32 -2
-64 -4 -67 -31 -49 -10 6 -11 13 -1 34 10 22 9 29 -7 44 -17 17 -18 17 -11 0
4 -10 2 -28 -4 -39 -8 -14 -8 -23 0 -31 6 -6 11 -20 11 -30 0 -16 -3 -17 -14
-8 -10 8 -16 9 -21 2 -7 -12 -55 -11 -55 1 0 4 -5 8 -11 8 -6 0 -9 -6 -6 -13
3 -7 -1 -21 -9 -32 -13 -18 -14 -17 -14 10 0 22 -3 26 -11 18 -9 -9 -15 -8
-26 3 -20 20 -28 18 -47 -11 -9 -14 -22 -25 -28 -25 -7 0 2 15 20 33 34 35 39
51 20 63 -7 4 -8 3 -4 -4 4 -7 -3 -16 -18 -23 -13 -6 -22 -17 -20 -23 2 -6 -5
-22 -18 -35 l-22 -24 -22 26 c-22 26 -44 26 -22 0 9 -11 9 -16 -2 -23 -9 -6
-17 -5 -21 2 -4 6 -9 -2 -11 -18 -2 -16 -8 -29 -15 -29 -6 0 -15 -3 -19 -7 -4
-5 -14 -8 -23 -8 -13 1 -12 3 3 15 19 15 19 15 -1 15 -31 0 -37 -28 -11 -51
l23 -20 -23 11 c-12 6 -37 8 -55 5 -29 -6 -35 -12 -45 -50 -10 -38 -17 -46
-44 -53 -20 -5 -34 -16 -36 -27 -3 -14 0 -16 14 -11 11 4 6 -4 -11 -18 -37
-31 -55 -33 -48 -6 3 11 0 20 -6 20 -6 0 -11 -7 -11 -15 0 -8 -7 -15 -15 -15
-8 0 -15 -4 -15 -8 0 -5 -20 -23 -45 -42 -25 -19 -45 -37 -45 -42 0 -15 29 -8
38 8 6 11 12 13 16 6 7 -12 -71 -55 -85 -47 -4 3 -10 1 -14 -5 -3 -5 -1 -10 6
-10 10 0 10 -3 1 -12 -10 -10 -14 -10 -21 0 -6 10 -14 8 -35 -9 -15 -12 -30
-19 -33 -15 -9 8 -32 -26 -33 -47 0 -10 -25 -42 -56 -72 -36 -34 -54 -58 -49
-66 6 -9 11 -8 20 5 21 28 29 -39 9 -70 -20 -29 -31 -25 -14 6 6 11 10 26 7
33 -4 14 -21 -16 -31 -56 -4 -19 -3 -26 3 -22 7 3 8 0 5 -9 -8 -20 0 -20 32 0
13 9 27 14 30 11 3 -3 -10 -13 -29 -22 -45 -21 -73 -52 -86 -95 -8 -27 -10
-28 -7 -7 4 34 -4 34 -28 0 -23 -31 -36 -131 -16 -118 9 6 10 1 5 -16 -4 -13
-12 -27 -17 -30 -5 -3 -6 -14 -2 -24 6 -14 4 -16 -7 -10 -12 7 -12 6 -1 -7 8
-11 9 -18 3 -22 -6 -4 -3 -14 9 -26 11 -11 17 -26 14 -35 -4 -8 -1 -15 5 -15
24 0 9 -20 -24 -34 -19 -8 -35 -20 -35 -27 0 -8 4 -8 15 1 9 7 18 10 21 7 10
-10 -5 -39 -16 -32 -6 3 -22 -3 -36 -14 -15 -12 -37 -21 -50 -21 -12 0 -36
-11 -52 -25 -17 -14 -41 -25 -55 -25 -14 0 -28 -6 -31 -12 -5 -10 -7 -10 -12
-1 -6 13 -34 6 -34 -8 0 -4 7 -6 15 -3 8 4 15 2 15 -2 -1 -12 -52 -66 -76 -80
-10 -6 -19 -15 -19 -21 0 -15 -49 -69 -75 -83 -21 -11 -22 -10 -16 6 6 17 6
17 -14 -1 -12 -11 -18 -25 -15 -35 6 -17 -19 -36 -40 -31 -5 1 -5 -3 1 -9 9
-9 8 -20 -4 -43 -8 -18 -21 -44 -29 -59 -7 -14 -13 -36 -13 -47 0 -12 -4 -21
-10 -21 -5 0 -10 14 -10 32 0 23 -3 29 -11 21 -12 -12 -12 -29 -5 -232 3 -83
8 -126 16 -131 7 -5 11 -19 8 -34 -3 -14 -1 -26 3 -26 5 0 9 -12 9 -28 0 -15
9 -45 21 -66 20 -38 21 -60 4 -113 -6 -17 -3 -23 9 -23 9 0 16 -4 16 -10 0 -5
9 -18 20 -28 11 -10 21 -34 22 -55 2 -20 6 -37 11 -37 4 0 7 -9 7 -19 0 -11 7
-27 15 -35 9 -9 21 -42 27 -73 6 -32 22 -89 35 -128 14 -38 27 -80 30 -92 3
-13 10 -23 15 -23 6 0 7 10 3 23 -16 53 -18 72 -5 60 7 -6 14 -44 17 -84 2
-39 8 -80 14 -91 6 -11 8 -22 5 -26 -3 -3 1 -13 10 -23 15 -16 24 -43 44 -129
4 -19 8 -30 9 -25 1 6 13 -19 26 -54 26 -70 25 -81 -6 -81 -15 0 -20 -6 -17
-22 2 -18 9 -22 27 -20 23 2 23 1 8 -15 -13 -16 -14 -21 -2 -43 21 -38 19 -63
-5 -57 -25 6 -44 -16 -35 -43 3 -11 9 -20 13 -20 4 0 21 -12 37 -26 l30 -26
-30 20 c-45 29 -112 52 -148 52 -28 0 -34 -5 -50 -42 -16 -35 -17 -48 -7 -90
7 -26 16 -51 21 -54 6 -3 5 -11 -2 -20 -6 -8 -7 -14 -2 -14 5 0 15 -12 22 -26
10 -23 10 -26 -4 -20 -11 4 -14 2 -8 -7 4 -6 9 -22 11 -35 1 -12 12 -39 23
-58 10 -19 17 -39 14 -43 -2 -5 4 -16 15 -26 23 -21 26 -41 8 -48 -7 -2 -1 -8
15 -12 30 -8 38 -26 9 -20 -10 2 -19 -2 -19 -9 0 -8 9 -11 23 -8 25 5 42 -19
47 -65 2 -16 6 -33 9 -38 9 -15 32 -99 29 -109 -1 -4 2 -13 7 -20 5 -6 12 -23
15 -37 4 -14 19 -38 33 -54 17 -18 22 -31 15 -33 -8 -3 -9 -8 -2 -16 25 -30
71 -131 62 -134 -6 -2 -9 -8 -6 -12 3 -5 12 -7 20 -3 8 3 15 1 15 -3 0 -5 11
-22 25 -38 21 -24 26 -26 31 -12 3 9 4 23 0 31 -3 8 -1 15 3 15 5 0 11 -5 13
-11 2 -7 4 6 5 27 0 38 19 101 28 93 2 -3 6 -20 8 -40 2 -19 6 -39 9 -44 3 -6
4 -23 1 -38 -5 -24 -10 -28 -29 -24 -13 2 -21 0 -18 -4 3 -5 12 -9 20 -9 16 0
19 -33 4 -59 -8 -17 -5 -19 30 -19 48 -1 46 -19 26 226 -8 96 -13 181 -11 190
3 20 46 104 55 112 9 7 22 41 27 69 2 14 9 33 14 43 7 12 6 18 -1 18 -7 0 -9
8 -4 23 4 12 7 30 6 40 0 9 5 17 13 17 10 0 12 7 5 29 -4 16 -6 31 -4 33 2 3
6 21 8 41 3 20 12 49 21 64 9 15 13 19 10 8 -6 -19 -5 -19 12 -3 19 19 25 89
9 100 -6 4 -5 12 2 21 7 8 9 23 5 32 -4 11 -2 16 3 12 12 -7 12 82 0 101 -4 7
-1 15 8 18 21 8 21 30 0 38 -21 8 -6 29 17 23 11 -3 17 -1 13 4 -3 5 -12 9
-20 9 -8 0 -14 7 -14 15 0 8 5 15 11 15 5 0 7 5 4 10 -4 6 -11 7 -17 4 -6 -4
-5 3 2 15 9 18 9 26 -2 39 -9 11 -10 14 0 8 6 -4 12 -3 12 2 0 6 -7 12 -15 16
-22 8 -18 32 6 33 21 2 21 1 3 -13 -11 -9 -14 -13 -7 -10 6 4 16 0 20 -9 7
-11 15 -12 38 -6 24 8 26 9 8 10 -12 1 -25 6 -28 12 -4 6 -1 10 6 8 8 -1 23
-1 34 0 15 1 17 3 6 10 -17 11 0 67 26 87 11 8 13 13 5 14 -10 0 -10 4 0 20 7
11 19 18 26 15 8 -3 10 0 6 8 -5 8 -3 8 7 -1 12 -11 12 -15 -2 -25 -8 -7 -22
-27 -30 -44 -7 -18 -17 -33 -21 -33 -8 0 -5 -51 5 -67 4 -6 1 -14 -5 -16 -7
-3 -4 -6 7 -6 17 -1 17 -3 5 -11 -12 -7 -13 -13 -3 -28 9 -16 8 -23 -5 -36
-14 -14 -14 -17 -2 -14 8 2 18 9 21 17 7 19 39 23 39 5 0 -8 5 -14 10 -14 6 0
10 7 10 15 0 8 4 15 9 15 6 0 8 -9 6 -20 -4 -21 4 -25 21 -12 5 4 1 -1 -9 -10
-11 -10 -23 -15 -28 -12 -5 3 -9 1 -9 -5 0 -5 5 -13 10 -16 6 -3 10 -2 10 3 0
13 33 10 48 -5 11 -11 11 -13 0 -13 -8 0 -6 -4 5 -11 9 -5 23 -7 30 -3 9 6 9
5 0 -7 -10 -13 -7 -14 25 -11 l37 3 -23 -20 c-13 -11 -18 -22 -12 -26 5 -3 10
-1 10 4 0 6 7 11 15 11 8 0 15 -7 15 -15 0 -8 -4 -15 -8 -15 -4 0 -8 -9 -8
-19 0 -11 3 -19 6 -19 3 1 20 -5 38 -12 22 -8 31 -17 28 -27 -3 -8 -2 -12 2
-9 12 7 45 -22 37 -33 -3 -6 -1 -11 4 -11 6 0 11 5 11 10 0 6 5 10 11 10 6 0
9 -6 6 -14 -3 -8 2 -16 15 -19 11 -3 17 -10 13 -16 -3 -6 -2 -11 2 -11 5 0 13
10 18 23 6 12 17 21 24 19 7 -1 19 5 26 14 12 17 15 13 27 -43 3 -16 28 -34
38 -28 6 3 10 -4 10 -16 0 -21 1 -21 13 -5 8 11 19 15 31 10 18 -7 18 -8 0
-21 -14 -10 -15 -14 -4 -12 23 3 127 -47 134 -66 5 -13 21 -16 83 -16 43 0
105 -2 138 -5 101 -10 199 -8 203 5 2 6 11 11 20 11 10 0 26 7 36 15 11 8 28
15 38 15 29 0 93 41 82 53 -3 2 7 7 21 11 14 4 25 11 25 17 0 6 4 7 10 4 5 -3
19 6 32 20 12 14 28 25 35 25 7 0 13 5 13 11 0 5 -4 7 -10 4 -5 -3 -10 -4 -10
-1 0 5 64 46 72 46 10 0 -5 -50 -18 -61 -8 -6 -14 -17 -14 -23 0 -6 5 -3 11 7
5 9 21 17 34 17 14 0 25 5 25 10 0 6 9 10 20 10 11 0 21 6 21 13 1 6 2 17 4
22 1 6 3 15 4 20 1 6 7 -1 14 -15 7 -14 23 -26 35 -28 13 -2 25 -9 28 -16 7
-19 -15 -69 -39 -89 -16 -12 -17 -16 -4 -11 20 7 21 1 5 -26 -10 -15 -9 -25 5
-52 9 -18 16 -26 16 -18 -3 43 2 74 10 61 6 -9 11 -10 15 -2 4 6 4 15 1 21 -9
14 5 80 17 80 6 0 8 -7 5 -15 -4 -8 -2 -17 3 -20 6 -4 10 -1 10 5 0 6 5 8 12
4 7 -4 8 -3 4 4 -4 7 -4 17 0 23 4 8 9 8 13 1 10 -16 32 2 36 29 2 13 7 35 11
48 5 17 4 22 -4 17 -7 -4 -9 1 -6 16 13 54 12 104 -2 145 -8 24 -12 48 -9 53
4 6 -1 13 -9 16 -23 9 -21 45 2 38 10 -4 13 -2 7 3 -18 13 -17 71 0 81 19 10
10 39 -13 45 -12 3 -10 5 5 6 26 1 21 31 -6 32 -12 0 -12 2 4 9 14 6 15 9 5 9
-8 1 -20 11 -25 24 -6 12 -16 23 -22 23 -24 3 -25 4 -13 19 10 12 9 15 -6 16
-11 0 -30 2 -44 4 -14 1 -31 -3 -39 -9 -11 -9 -13 -6 -7 14 l7 25 -18 -21
c-27 -31 -51 -37 -63 -14 -17 31 -11 71 13 92 l22 20 -24 -16 c-14 -9 -30 -28
-37 -43 -8 -19 -13 -22 -13 -11 -1 15 -5 16 -27 8 -14 -6 -23 -7 -21 -2 2 4
-7 18 -20 31 -16 17 -23 20 -23 10 0 -8 6 -21 13 -29 6 -8 0 -4 -15 9 -14 12
-32 36 -38 52 -7 16 -17 29 -22 29 -5 0 -7 -4 -4 -8 9 -15 -39 -11 -56 5 -14
12 -15 19 -7 30 14 16 17 16 -108 14 -72 0 -106 3 -115 12 -25 25 -111 35
-215 25 -50 -5 -73 5 -35 15 9 3 -8 3 -38 0 -51 -5 -54 -4 -35 11 18 14 18 15
2 16 -10 0 -34 -7 -55 -15 -21 -9 -60 -15 -93 -14 -62 2 -159 -27 -159 -48 0
-7 -7 -13 -15 -13 -8 0 -15 -5 -15 -11 0 -5 -5 -7 -12 -3 -6 4 -8 3 -5 -3 4
-5 -7 -23 -24 -39 -25 -24 -32 -26 -40 -14 -9 12 -10 12 -5 -2 3 -12 0 -18
-10 -18 -8 0 -12 -5 -9 -11 4 -6 1 -9 -8 -7 -19 4 -67 -47 -67 -71 0 -20 -36
-35 -46 -20 -3 5 -10 9 -15 9 -6 0 -7 -4 -4 -10 3 -5 1 -10 -6 -10 -8 0 -9 11
-4 36 6 33 5 35 -14 29 -13 -4 -21 -2 -21 5 0 6 5 8 10 5 6 -3 10 -2 10 4 0
12 37 6 55 -9 7 -6 20 -8 28 -4 13 5 14 10 5 30 -10 22 -21 29 -42 25 -4 -1
-14 6 -21 16 -11 15 -15 16 -31 3 -17 -14 -18 -14 -5 3 16 20 16 20 -27 8 -22
-7 -32 -6 -32 1 0 6 -3 8 -6 5 -4 -4 -1 -13 6 -22 10 -12 10 -15 -3 -15 -8 0
-17 3 -20 8 -2 4 -2 2 -1 -5 2 -7 -2 -15 -8 -19 -17 -11 14 -24 33 -13 21 11
31 -1 19 -21 -5 -9 -4 -20 3 -29 9 -12 9 -13 -1 -7 -8 5 -15 -2 -22 -18 -10
-28 -40 -36 -40 -11 0 8 5 15 11 15 6 0 9 6 6 14 -8 19 3 28 19 15 9 -8 12 -6
9 8 -2 10 -4 20 -4 22 -1 2 -10 -4 -21 -14 -11 -10 -17 -21 -15 -26 11 -16
-14 -18 -30 -2 -13 13 -16 26 -10 57 3 23 7 54 9 69 2 16 8 32 15 37 7 4 11
10 9 13 -1 4 5 16 15 27 9 11 17 25 17 31 0 5 5 7 10 4 6 -4 7 -12 3 -18 -4
-7 0 -6 10 2 9 7 14 18 10 24 -3 6 -1 7 5 3 6 -4 20 -2 31 3 15 8 22 7 32 -7
7 -9 9 -14 5 -10 -5 4 -15 3 -23 -3 -10 -9 -13 -8 -13 1 0 10 -3 10 -15 0 -8
-7 -15 -17 -15 -22 0 -7 5 -7 13 0 8 7 18 7 27 2 13 -8 12 -10 -2 -10 -9 0
-20 -5 -24 -12 -4 -6 -3 -8 4 -4 12 7 53 -31 51 -48 -3 -27 2 -38 16 -32 8 3
15 0 15 -6 0 -6 6 -5 17 3 11 10 14 10 9 2 -8 -14 3 -17 28 -7 8 3 13 11 10
18 -3 9 4 13 23 14 44 0 46 1 35 15 -7 8 -7 18 -2 27 8 13 11 13 22 1 10 -10
10 -12 1 -7 -7 4 -13 2 -13 -4 0 -7 6 -10 13 -7 6 2 11 15 10 28 -1 13 0 18 3
11 5 -10 9 -10 20 -1 8 6 11 16 7 22 -4 6 0 8 10 4 9 -3 19 -2 22 3 4 6 1 10
-4 10 -6 0 -11 5 -11 10 0 6 9 10 19 10 11 0 21 4 23 9 2 5 10 11 17 13 24 5
65 70 51 78 -9 6 -9 9 1 12 8 3 19 -4 25 -16 11 -19 13 -17 34 27 12 26 27 47
32 47 6 0 7 7 4 16 -4 10 -2 13 6 8 8 -5 9 -2 5 9 -3 9 -1 19 5 23 6 4 8 3 4
-4 -3 -6 -2 -13 4 -17 6 -4 8 -11 5 -16 -4 -5 -1 -9 4 -9 6 0 11 5 11 11 0 6
6 9 14 6 10 -4 12 0 8 15 -4 16 -2 19 9 14 8 -4 6 -1 -3 6 -11 10 -14 19 -7
29 7 12 9 12 9 -1 0 -11 3 -11 18 3 14 15 15 19 2 27 -8 5 -18 6 -24 3 -5 -4
-6 -1 -2 6 5 7 14 10 21 7 8 -3 14 8 18 32 3 20 8 46 13 57 5 15 -3 11 -32
-15 l-39 -35 33 36 c20 22 30 39 23 43 -15 10 -2 36 16 29 11 -4 12 -8 3 -13
-13 -8 -6 -30 9 -30 4 0 13 10 19 23 6 12 11 16 11 10 1 -7 7 -13 15 -13 8 0
17 -6 19 -12 4 -8 6 -7 6 3 1 9 -8 19 -19 22 -11 3 -20 13 -20 22 0 10 5 13
12 9 7 -4 8 -3 4 4 -10 17 -26 15 -26 -4 0 -9 -6 -14 -12 -11 -7 2 -12 9 -11
14 1 6 -10 10 -25 9 -21 -1 -26 3 -24 18 3 15 1 16 -11 5 -13 -12 -12 -16 4
-30 18 -15 18 -17 2 -30 -9 -8 -14 -9 -11 -4 11 18 -9 42 -22 29 -9 -9 -9 -14
-1 -18 6 -4 11 -12 11 -18 0 -6 -9 -3 -20 7 -11 10 -17 21 -15 26 3 4 0 13 -7
21 -7 7 -14 21 -14 30 -2 16 1 16 27 3 17 -10 30 -11 34 -5 3 6 -4 10 -17 10
-14 0 -18 3 -12 8 7 4 14 18 15 31 2 13 13 30 24 37 17 11 29 9 89 -20 71 -34
132 -39 176 -16 31 17 68 11 86 -12 14 -20 15 -20 9 -3 -5 11 -9 30 -9 42 -1
16 -5 19 -18 12 -22 -12 -120 -12 -151 0 -14 5 -41 24 -61 42 -29 25 -34 34
-25 45 9 12 9 13 -4 8 -11 -4 -15 0 -13 12 2 9 13 19 26 21 29 4 52 22 44 34
-3 5 -2 9 3 9 4 0 19 17 33 38 14 20 31 43 37 50 7 7 13 18 13 23 0 6 8 9 18
7 9 -2 45 11 78 28 39 21 70 31 83 27 17 -4 19 -8 10 -19 -19 -23 7 -16 33 9
13 12 19 19 14 15 -16 -12 -26 -9 -26 7 0 33 62 8 73 -30 4 -12 5 -9 3 8 -2
20 1 27 13 27 10 0 22 5 29 12 9 9 12 9 12 -3 0 -7 12 -25 27 -39 15 -14 23
-19 19 -13 -4 7 -2 22 4 33 9 16 8 25 -1 36 -9 12 -7 14 17 14 36 0 50 -9 57
-35 5 -19 5 -19 12 3 5 15 13 21 22 18 8 -3 20 -6 26 -6 7 0 3 -7 -7 -15 -12
-9 -15 -15 -7 -15 8 0 11 -6 7 -16 -5 -13 -3 -14 6 -6 12 9 55 17 68 12 24 -9
38 -6 33 6 -3 8 -10 14 -16 14 -6 0 -8 3 -5 6 4 3 16 0 28 -6 12 -7 20 -8 17
-3 -3 5 -2 15 2 22 6 9 13 5 25 -14 10 -15 23 -24 31 -21 20 7 35 -16 28 -44
-4 -16 -3 -21 6 -16 6 4 31 0 55 -9 43 -16 66 -14 66 6 0 5 -8 9 -17 9 -9 0
-14 3 -11 6 3 3 28 -2 54 -11 34 -11 39 -14 16 -10 -18 2 -31 1 -27 -4 3 -5
-1 -12 -7 -15 -13 -5 80 0 137 8 17 2 50 5 75 7 25 1 50 6 55 9 6 4 50 21 100
39 49 17 91 35 93 40 2 6 9 8 17 5 7 -3 16 3 20 15 3 11 15 23 26 26 10 4 19
10 19 14 0 14 45 9 61 -7 22 -23 111 -97 118 -98 7 0 117 -33 141 -42 10 -3 4
-8 -15 -12 l-30 -7 35 -4 c25 -3 35 -9 34 -21 -1 -9 7 -19 17 -21 23 -6 25 6
4 23 -8 7 -15 16 -15 20 0 10 82 40 101 37 31 -5 49 -27 39 -47 -7 -14 -4 -20
18 -30 15 -8 31 -13 35 -11 5 1 6 -2 4 -6 -2 -5 -1 -17 4 -28 6 -17 8 -17 8
-2 1 9 6 17 12 17 6 0 8 -7 5 -15 -4 -10 2 -19 17 -25 19 -8 10 -15 -15 -11
-18 3 -6 -10 17 -19 14 -5 25 -13 24 -17 -3 -19 2 -34 9 -29 4 2 14 0 22 -6
13 -8 12 -9 -1 -5 -9 3 -24 -4 -33 -14 -15 -19 -15 -21 7 -42 23 -21 27 -54 5
-41 -7 4 -8 2 -4 -4 4 -6 14 -8 23 -5 13 5 13 2 -2 -21 -10 -15 -24 -25 -31
-22 -8 3 -14 1 -14 -4 0 -5 -8 -7 -17 -3 -13 4 -11 -1 7 -19 14 -14 28 -23 33
-21 12 7 8 -12 -5 -26 -10 -11 -10 -13 0 -7 6 4 12 2 12 -3 0 -6 -5 -11 -11
-11 -5 0 -7 -5 -4 -10 4 -6 11 -8 16 -4 5 3 16 0 24 -6 8 -7 21 -10 29 -7 10
4 14 0 13 -14 -1 -10 -7 -19 -14 -19 -7 0 -10 -7 -7 -15 4 -8 9 -13 14 -10 4
2 7 -9 8 -25 0 -17 -4 -30 -11 -30 -6 0 -3 -6 8 -13 10 -8 15 -19 12 -24 -9
-15 19 -37 34 -27 8 5 10 2 7 -8 -4 -9 0 -15 8 -15 8 0 14 4 14 8 0 5 11 4 24
-1 17 -6 26 -5 30 3 3 7 3 2 0 -10 -6 -25 2 -28 40 -13 21 8 26 6 31 -10 4
-11 12 -20 19 -20 7 0 19 -11 26 -25 20 -37 1 -52 -36 -30 l-29 17 24 -19 c14
-12 20 -23 13 -27 -6 -3 -12 -1 -14 6 -2 6 -10 8 -16 4 -22 -13 -12 -26 21
-27 l32 -1 -32 -9 c-18 -5 -33 -14 -33 -19 0 -13 -67 -13 -74 -1 -3 5 -16 7
-28 3 -13 -3 -19 -1 -15 5 4 6 -2 13 -13 16 -11 3 -20 3 -20 0 0 -9 29 -33 40
-33 6 0 9 -4 5 -9 -3 -5 -19 -9 -36 -9 -17 1 -34 -4 -38 -11 -4 -7 -37 -16
-72 -21 -35 -5 -77 -13 -94 -18 -16 -5 -52 -8 -79 -8 -40 1 -54 -3 -77 -25
-16 -15 -29 -25 -29 -22 0 3 -8 -1 -17 -8 -15 -12 -16 -12 -10 4 11 31 -8 18
-27 -18 -11 -19 -23 -35 -29 -35 -5 0 -1 12 9 28 12 19 13 23 3 15 -11 -9 -19
-9 -26 -2 -8 8 -13 7 -18 -1 -4 -7 -2 -15 4 -19 9 -6 6 -15 -8 -32 -11 -13
-20 -18 -21 -11 0 20 -16 14 -30 -14 -11 -19 -19 -24 -37 -19 -14 3 -23 1 -23
-6 0 -6 -7 -8 -16 -5 -10 4 -13 2 -8 -6 5 -8 2 -9 -10 -5 -13 5 -17 3 -13 -7
5 -12 -14 -27 -33 -27 -3 0 -9 -8 -14 -17 -8 -14 -10 -14 -17 3 -8 19 -8 19
-14 -2 -4 -12 -13 -19 -20 -17 -6 3 -20 -6 -29 -20 -9 -15 -14 -26 -10 -26 4
0 1 -7 -6 -15 -6 -8 -9 -19 -5 -25 3 -6 8 -21 11 -35 3 -18 1 -23 -10 -19 -8
3 -17 1 -20 -4 -3 -6 0 -12 8 -15 15 -6 15 -18 0 -52 -5 -11 -9 -64 -9 -118 0
-53 -3 -97 -7 -97 -5 0 -8 -5 -8 -11 0 -5 4 -8 9 -4 6 3 6 -7 1 -26 -6 -20 -6
-39 1 -50 5 -11 7 -19 3 -19 -3 0 -1 -7 6 -15 7 -8 16 -13 20 -10 4 3 13 -2
20 -10 11 -13 8 -19 -11 -17 -3 1 -3 -12 -1 -29 2 -17 10 -29 19 -29 8 0 21
-7 29 -15 13 -12 12 -15 -6 -25 -11 -6 -20 -16 -20 -22 0 -6 9 -3 20 7 24 21
39 13 20 -11 -11 -13 -11 -17 0 -24 7 -4 19 -6 27 -3 15 6 30 -26 16 -36 -6
-3 -4 -16 4 -31 7 -14 13 -19 13 -12 0 6 5 12 11 12 5 0 8 -4 5 -9 -3 -5 5
-16 18 -25 20 -12 26 -13 35 -2 6 7 8 16 5 19 -4 3 -3 14 1 24 5 10 9 32 9 48
1 17 5 40 10 53 8 24 31 30 39 10 3 -7 4 -3 4 10 -1 12 -6 22 -12 22 -7 0 -12
19 -12 44 -1 34 3 43 13 39 8 -3 14 1 14 11 0 9 8 16 20 16 11 0 20 -3 20 -8
0 -10 -38 -42 -51 -42 -5 0 -8 -4 -4 -10 3 -5 12 -7 20 -3 9 3 15 -1 15 -11 0
-9 5 -16 11 -16 7 0 8 7 4 18 -11 29 -11 34 4 40 8 3 11 0 7 -7 -4 -6 -2 -11
3 -11 6 0 11 5 11 11 0 5 4 8 10 4 5 -3 7 -12 3 -20 -6 -18 8 -19 26 -2 11 10
13 9 8 -5 -4 -12 3 -20 26 -29 18 -7 37 -12 44 -12 6 0 9 -6 6 -14 -5 -13 -2
-13 17 -3 12 7 20 8 17 3 -3 -5 -2 -15 4 -23 6 -10 9 -11 9 -2 0 6 5 12 11 12
5 0 8 -4 5 -9 -3 -5 8 -11 25 -15 16 -3 37 -13 45 -21 18 -17 44 -20 44 -5 0
6 6 10 13 9 25 -3 38 1 32 11 -4 6 -11 8 -16 5 -5 -4 -9 1 -9 9 0 9 5 16 10
16 6 0 10 -5 10 -11 0 -8 16 -9 53 -4 52 8 94 8 154 0 23 -3 31 0 27 9 -4 9 3
13 20 11 14 -2 30 3 37 11 6 7 16 11 23 7 16 -10 127 -4 141 7 7 6 15 7 19 3
4 -4 4 0 0 10 -4 12 -1 17 11 17 9 0 31 10 48 22 18 13 38 22 44 20 7 -2 13 3
13 9 0 7 8 5 20 -6 11 -10 20 -16 21 -14 11 62 19 79 37 80 9 1 24 2 32 3 8 1
20 -3 27 -7 7 -5 16 -6 21 -3 6 3 15 -1 22 -9 13 -15 35 -10 25 6 -4 5 1 9 10
9 11 0 15 -5 12 -15 -4 -8 -2 -17 3 -20 6 -4 10 -2 10 2 0 5 8 9 18 9 18 0 23
-21 9 -43 -11 -17 0 -37 28 -50 19 -8 27 -8 32 0 3 7 2 9 -2 4 -12 -10 -45 22
-38 39 3 8 13 14 22 15 13 0 12 2 -3 8 -13 5 -16 10 -9 14 7 4 18 -2 26 -14
11 -14 17 -17 22 -9 4 7 1 16 -6 21 -11 7 -11 9 -1 9 8 0 12 6 9 13 -2 6 -10
11 -16 10 -6 -2 -11 2 -11 7 0 9 14 14 33 11 4 0 7 4 7 9 0 6 -10 10 -22 10
-17 0 -19 3 -9 9 7 5 10 15 7 22 -4 8 -1 6 7 -3 19 -24 30 -23 17 1 -14 26
-13 31 5 31 14 0 14 3 0 30 -9 17 -12 30 -8 29 22 -4 23 3 2 22 -16 13 -18 19
-7 16 26 -9 29 4 5 25 -12 11 -17 17 -10 13 7 -3 17 5 24 17 6 13 8 20 4 16
-11 -10 -38 29 -30 43 4 5 -3 19 -16 30 l-22 19 21 0 c32 0 37 -3 34 -17 -2
-8 6 -13 19 -13 12 0 20 -3 16 -6 -3 -4 0 -12 7 -20 12 -12 33 -116 27 -138
-1 -4 3 -14 9 -21 6 -8 10 -22 8 -32 -1 -10 1 -24 6 -32 5 -7 10 -45 12 -83 2
-39 6 -73 9 -76 3 -3 -1 -12 -8 -20 -10 -13 -9 -15 4 -10 13 5 16 -3 18 -45 1
-28 4 -53 6 -56 3 -2 -3 -13 -12 -24 -15 -17 -15 -19 -2 -15 13 5 15 -10 17
-114 1 -66 5 -124 8 -130 4 -6 1 -14 -6 -18 -9 -5 -9 -13 -1 -27 18 -35 21
-115 8 -276 -7 -87 -9 -163 -5 -170 6 -9 8 -8 9 3 1 8 1 19 0 23 -1 5 3 6 8 3
16 -10 41 5 41 25 0 10 13 28 29 40 30 22 39 41 47 94 2 16 9 34 14 39 17 17
11 24 -12 18 -20 -5 -21 -3 -10 11 8 9 20 13 28 10 8 -3 14 -2 13 3 -2 14 12
52 36 100 13 25 18 45 12 47 -13 4 -10 101 3 105 6 2 7 8 4 13 -3 6 0 16 6 24
6 8 9 19 6 24 -4 5 -2 12 4 16 6 4 8 10 6 14 -3 4 0 13 6 21 8 13 9 13 5 0 -6
-21 18 -43 31 -27 18 24 22 47 7 47 -22 0 -18 21 5 27 28 7 36 41 14 58 -18
12 -18 14 1 49 21 38 30 44 38 24 3 -8 7 -6 12 7 4 11 15 36 24 55 24 48 28
120 7 120 -20 0 -20 7 -1 27 8 8 13 18 10 23 -3 4 2 25 11 45 15 36 14 38 -8
62 -38 41 -63 46 -116 23 -41 -17 -44 -18 -26 -2 11 9 19 23 17 29 -2 6 4 13
13 15 15 2 13 6 -9 21 -15 10 -27 13 -27 7 0 -5 5 -10 10 -10 6 0 10 -4 10
-10 0 -5 -13 -8 -30 -7 -36 2 -37 15 -10 75 22 49 18 70 -16 78 -13 3 -24 10
-24 16 0 5 -4 6 -10 3 -5 -3 -10 1 -10 9 0 8 5 18 11 22 6 3 9 14 6 23 -2 9 3
23 11 30 12 12 12 15 -1 22 -16 10 -12 49 6 61 6 3 12 15 13 25 2 10 6 37 10
59 5 32 2 49 -12 73 -20 35 -12 54 12 25 14 -18 15 -18 8 6 -4 14 -9 31 -11
38 -3 6 0 12 6 12 6 0 9 15 7 35 -1 19 2 36 6 37 5 2 10 19 11 38 2 19 8 45
15 57 7 12 8 24 3 27 -9 6 8 78 22 92 4 4 7 16 7 26 0 10 4 18 8 18 4 0 14 21
21 48 7 26 20 58 29 71 18 29 24 111 8 111 -6 0 -4 6 5 13 8 7 18 20 22 30 4
10 11 16 16 13 12 -8 4 206 -10 267 -6 26 -8 59 -5 72 4 14 2 25 -4 25 -5 0
-10 9 -10 21 0 11 5 17 10 14 6 -3 10 -1 10 4 0 6 -5 11 -10 11 -13 0 -28 39
-33 84 -2 19 -9 41 -15 49 -8 9 -8 17 -2 23 13 13 -32 108 -57 123 -15 9 -15
10 -2 11 11 0 15 9 13 34 -2 18 3 42 10 51 9 13 11 29 5 54 -5 21 -4 37 1 39
5 2 5 14 -1 28 -12 32 -11 37 2 28 6 -3 3 5 -6 20 -12 18 -14 30 -8 39 7 8 7
34 -1 78 -11 63 -28 99 -48 99 -15 0 -35 24 -31 37 2 6 -1 14 -6 18 -6 3 -11
29 -11 56 0 34 -4 49 -12 48 -22 -3 -53 2 -42 7 25 11 -18 134 -47 134 -12 0
-61 56 -71 81 -4 12 -14 16 -27 12 -17 -4 -21 1 -27 36 -6 35 -10 41 -32 41
-21 0 -23 2 -12 15 11 13 11 20 0 40 -7 13 -18 22 -23 18 -6 -4 -7 -1 -3 6 9
13 -23 43 -36 35 -5 -3 -8 1 -8 9 0 8 -12 18 -27 22 -38 9 -34 7 -61 34 -14
14 -22 31 -19 42 3 11 1 19 -4 19 -5 0 -9 8 -9 18 0 23 -25 57 -42 57 -7 0
-12 8 -10 17 3 18 -44 92 -77 122 -11 10 -25 15 -32 10 -7 -4 -10 -3 -6 3 4 6
0 13 -8 17 -9 3 -15 -1 -15 -11 0 -12 -3 -13 -15 -3 -8 6 -20 8 -26 4 -8 -5
-10 -2 -6 8 4 12 -4 17 -34 22 -27 4 -39 11 -39 22 0 11 -6 15 -20 11 -11 -3
-20 -2 -20 3 0 13 29 32 40 25 5 -3 10 -2 10 4 0 6 -8 15 -18 20 -13 7 -28 2
-62 -21 l-45 -30 30 33 c17 19 34 37 40 41 26 19 -133 44 -167 26 -10 -5 -18
-7 -18 -4 0 4 58 42 90 58 8 5 -2 6 -22 3 -27 -4 -38 -2 -38 6 0 7 -6 4 -14
-7 -13 -16 -18 -17 -36 -6 -11 7 -33 10 -48 7 -15 -2 -9 2 13 9 31 11 36 15
23 21 -10 4 -25 4 -34 1 -8 -3 -13 -2 -10 3 8 12 -66 21 -79 10 -5 -5 -16 -9
-25 -9 -11 1 -9 6 9 20 22 19 22 20 3 20 -11 0 -25 7 -32 15 -8 9 -17 12 -24
7 -24 -20 -68 -23 -92 -8 -12 9 -30 13 -38 10 -9 -3 -16 -1 -16 6 0 6 -4 8
-10 5 -21 -13 -9 8 16 27 21 17 23 23 12 33 -7 7 -23 16 -35 20 -17 5 -23 2
-23 -10 0 -9 -6 -15 -12 -12 -7 2 -12 11 -10 21 4 24 -6 20 -38 -14 -27 -29
-53 -43 -31 -17 17 22 0 29 -22 10 -19 -17 -20 -17 -10 1 7 12 7 26 -1 42 -14
30 -26 31 -26 2 0 -24 -40 -112 -47 -104 -7 7 20 66 29 66 14 0 8 68 -6 73 -7
3 -13 0 -13 -6 1 -31 -4 -47 -14 -47 -6 0 -9 7 -5 15 3 8 0 27 -6 40 l-11 25
-29 -27 c-29 -28 -40 -27 -12 1 14 15 14 19 -6 49 -15 22 -19 25 -15 10 8 -29
-11 -39 -20 -10 -6 19 -8 19 -12 5 -2 -10 -9 -18 -15 -18 -6 0 -8 9 -5 20 3
11 1 23 -4 26 -5 3 -9 -3 -9 -13 -1 -17 -1 -17 -11 0 -5 9 -19 17 -30 17 -16
0 -18 -5 -13 -25 3 -14 3 -25 -1 -25 -10 0 -35 27 -35 39 0 18 -20 13 -27 -6
-11 -29 -30 -45 -36 -30 -4 8 -8 8 -14 2 -12 -14 -33 -17 -30 -4 1 7 -15 12
-40 13 -23 1 -45 5 -49 9 -4 4 -16 7 -26 7 -10 0 -18 6 -18 13 0 8 -4 7 -10
-3 -7 -11 -12 -12 -17 -4 -7 10 -56 17 -198 27 -29 2 -73 -4 -105 -14z m380
-44 c11 -13 8 -15 -19 -15 -33 0 -42 16 -13 23 9 3 18 5 18 6 1 0 7 -6 14 -14z
m35 -5 c3 -5 1 -10 -4 -10 -6 0 -11 5 -11 10 0 6 2 10 4 10 3 0 8 -4 11 -10z
m262 -42 c-3 -8 -6 -5 -6 6 -1 11 2 17 5 13 3 -3 4 -12 1 -19z m-507 -8 c-8
-6 -25 -10 -37 -10 -13 0 -23 -4 -23 -9 0 -4 -11 -6 -25 -3 -29 5 -32 -5 -7
-24 14 -12 12 -12 -16 -3 -25 9 -40 9 -60 -1 -21 -9 -24 -9 -15 0 6 7 9 18 7
25 -4 9 8 13 38 14 24 0 66 7 93 14 52 14 70 13 45 -3z m500 -56 l35 -44 5 42
c4 32 7 38 13 25 23 -57 -12 -103 -42 -56 -9 13 -29 38 -45 56 -15 18 -22 31
-15 28 8 -3 30 -26 49 -51z m-693 40 c-3 -3 -12 -4 -19 -1 -8 3 -5 6 6 6 11 1
17 -2 13 -5z m-157 -24 c0 -5 -7 -7 -15 -4 -8 4 -12 10 -9 15 6 11 24 2 24
-11z m557 -62 c-3 -8 -6 -5 -6 6 -1 11 2 17 5 13 3 -3 4 -12 1 -19z m343 -33
c0 -8 -4 -15 -10 -15 -5 0 -10 7 -10 15 0 8 5 15 10 15 6 0 10 -7 10 -15z
m150 -5 c-8 -5 -19 -10 -25 -10 -5 0 -3 5 5 10 8 5 20 10 25 10 6 0 3 -5 -5
-10z m-1480 -20 c0 -5 -2 -10 -4 -10 -3 0 -8 5 -11 10 -3 6 -1 10 4 10 6 0 11
-4 11 -10z m1440 6 c0 -3 -4 -8 -10 -11 -5 -3 -10 -1 -10 4 0 6 5 11 10 11 6
0 10 -2 10 -4z m380 -15 c0 -11 -59 -20 -65 -11 -3 4 -2 10 2 14 10 9 63 7 63
-3z m-2076 -116 c-4 -8 -11 -15 -16 -15 -6 0 -5 6 2 15 7 8 14 15 16 15 2 0 1
-7 -2 -15z m2336 -23 c0 -4 -10 -13 -22 -21 -23 -14 -23 -14 -4 8 20 22 26 25
26 13z m40 -11 c0 -6 -4 -13 -10 -16 -5 -3 -10 1 -10 9 0 9 5 16 10 16 6 0 10
-4 10 -9z m-2690 -27 c0 -8 -4 -14 -10 -14 -5 0 -10 9 -10 21 0 11 5 17 10 14
6 -3 10 -13 10 -21z m1793 -11 c-7 -2 -19 -2 -25 0 -7 3 -2 5 12 5 14 0 19 -2
13 -5z m-1881 -25 c-7 -7 -12 -8 -12 -2 0 14 12 26 19 19 2 -3 -1 -11 -7 -17z
m-36 -3 c-11 -8 -22 -12 -25 -9 -6 6 19 24 34 24 6 -1 1 -7 -9 -15z m2939 -45
c-3 -5 -11 -10 -16 -10 -6 0 -7 5 -4 10 3 6 11 10 16 10 6 0 7 -4 4 -10z
m-3119 -58 c-9 -17 -21 -34 -27 -38 -7 -4 -2 12 11 34 27 47 40 50 16 4z
m3308 -74 c-3 -4 -12 -8 -20 -8 -8 0 -14 4 -14 8 0 4 9 8 19 8 11 0 17 -4 15
-8z m-1557 -34 c-3 -3 -12 -4 -19 -1 -8 3 -5 6 6 6 11 1 17 -2 13 -5z m1653
-48 c0 -11 -19 -15 -25 -6 -3 5 1 10 9 10 9 0 16 -2 16 -4z m-3586 -28 c-8
-28 -12 -33 -20 -25 -9 8 6 47 17 47 6 0 7 -10 3 -22z m3546 -78 c-20 -13 -33
-13 -25 0 3 6 14 10 23 10 15 0 15 -2 2 -10z m-3705 -90 c-3 -5 -11 -10 -16
-10 -6 0 -7 5 -4 10 3 6 11 10 16 10 6 0 7 -4 4 -10z m-56 -67 c-24 -44 -29
-50 -29 -37 0 11 38 74 45 74 2 0 -5 -17 -16 -37z m-83 -28 c0 -14 -6 -27 -13
-29 -7 -3 -10 1 -7 10 2 7 6 21 9 29 7 23 13 18 11 -10z m4224 -265 c-20 -13
-33 -13 -25 0 3 6 14 10 23 10 15 0 15 -2 2 -10z m-4409 -81 c-5 -13 -10 -19
-10 -12 -1 15 10 45 15 40 3 -2 0 -15 -5 -28z m4509 27 c0 -9 -39 -13 -51 -5
-10 6 -4 9 19 9 17 0 32 -2 32 -4z m-77 -13 c-7 -2 -21 -2 -30 0 -10 3 -4 5
12 5 17 0 24 -2 18 -5z m190 -262 c-3 -11 -10 -18 -17 -15 -7 3 -41 -8 -77
-24 -35 -16 -77 -32 -94 -35 -18 -4 -7 4 25 18 30 14 78 36 105 49 61 30 64
31 58 7z m-4987 -344 c-37 -36 -68 -76 -72 -93 -8 -33 -34 -75 -34 -56 0 7 9
31 19 52 21 43 18 49 -10 24 -16 -15 -17 -14 -12 5 3 12 10 21 16 21 6 0 27
16 47 35 29 28 90 71 108 74 1 1 -27 -27 -62 -62z m64 19 c0 -3 -4 -8 -10 -11
-5 -3 -10 -1 -10 4 0 6 5 11 10 11 6 0 10 -2 10 -4z m-180 -56 c0 -5 -4 -10
-10 -10 -5 0 -10 5 -10 10 0 6 5 10 10 10 6 0 10 -4 10 -10z m2000 -170 c0 -5
-5 -10 -11 -10 -5 0 -7 5 -4 10 3 6 8 10 11 10 2 0 4 -4 4 -10z m-60 -30 c0
-5 -5 -10 -11 -10 -5 0 -7 5 -4 10 3 6 8 10 11 10 2 0 4 -4 4 -10z m44 -2
c-15 -27 -27 -38 -35 -32 -5 3 1 14 13 24 27 23 32 24 22 8z m1310 -4 c9 -3
16 -15 16 -26 0 -17 3 -18 15 -8 12 10 15 9 15 -5 0 -14 3 -15 15 -5 8 7 13
15 11 19 -6 9 53 5 62 -4 4 -3 0 -10 -8 -15 -11 -7 -7 -10 14 -16 19 -5 31 -2
37 7 6 9 9 10 9 2 0 -6 16 -17 36 -25 32 -11 33 -14 18 -25 -30 -22 -64 -16
-65 10 -1 20 -2 20 -6 2 -8 -33 -17 -36 -69 -19 -55 17 -81 36 -107 76 -24 38
-23 44 7 32z m-940 -20 c3 -8 2 -12 -4 -9 -6 3 -10 10 -10 16 0 14 7 11 14 -7z
m-161 -1 c-7 -2 -19 -2 -25 0 -7 3 -2 5 12 5 14 0 19 -2 13 -5z m127 3 c0 -3
-4 -8 -10 -11 -5 -3 -10 -1 -10 4 0 6 5 11 10 11 6 0 10 -2 10 -4z m-305 -16
c-3 -5 -11 -10 -16 -10 -6 0 -7 5 -4 10 3 6 11 10 16 10 6 0 7 -4 4 -10z
m-159 -45 c-6 -17 9 -21 19 -5 3 6 12 10 18 10 12 -1 -30 -40 -42 -40 -4 0 -8
11 -9 25 -1 14 3 25 9 25 6 0 9 -7 5 -15z m-1976 -5 c0 -5 -4 -10 -10 -10 -5
0 -10 5 -10 10 0 6 5 10 10 10 6 0 10 -4 10 -10z m1900 -30 c0 -5 -9 -14 -20
-20 -16 -8 -20 -8 -20 4 0 13 13 23 33 25 4 1 7 -3 7 -9z m35 -10 c-3 -5 -10
-10 -16 -10 -5 0 -9 5 -9 10 0 6 7 10 16 10 8 0 12 -4 9 -10z m935 0 c0 -6
-11 -8 -27 -4 -40 10 -41 14 -5 14 18 0 32 -5 32 -10z m800 6 c0 -3 -4 -8 -10
-11 -5 -3 -10 -1 -10 4 0 6 5 11 10 11 6 0 10 -2 10 -4z m-1853 -63 c-9 -9
-19 -14 -23 -11 -10 10 6 28 24 28 15 0 15 -1 -1 -17z m-27 -53 c-12 -8 -13
-10 -1 -10 11 0 10 -5 -4 -20 -10 -11 -20 -18 -23 -15 -3 2 -11 -3 -18 -13 -8
-9 -14 -12 -14 -5 0 6 10 19 22 27 12 9 17 16 10 16 -20 0 -13 20 11 29 26 10
38 4 17 -9z m-79 -52 c-8 -23 -31 -37 -31 -20 0 10 27 42 35 42 3 0 1 -10 -4
-22z m-1438 -58 c3 -11 1 -18 -4 -14 -5 3 -9 12 -9 20 0 20 7 17 13 -6z m1401
1 c-9 -9 -34 -9 -34 -1 0 5 9 8 20 7 10 -1 17 -3 14 -6z m-24 -36 c-7 -9 -15
-13 -19 -10 -3 3 1 10 9 15 21 14 24 12 10 -5z m2330 -15 c0 -5 -5 -10 -11
-10 -5 0 -7 5 -4 10 3 6 8 10 11 10 2 0 4 -4 4 -10z m-2265 -23 c8 2 26 -4 41
-14 32 -21 89 -42 119 -44 11 -1 4 -5 -15 -8 -53 -10 -180 41 -180 72 0 8 3 8
11 0 6 -6 17 -9 24 -6z m-115 -78 c0 -5 -7 -9 -15 -9 -15 0 -20 12 -9 23 8 8
24 -1 24 -14z m-70 -39 c-8 -5 -19 -10 -25 -10 -5 0 -3 5 5 10 8 5 20 10 25
10 6 0 3 -5 -5 -10z m47 -46 c-3 -3 -12 -4 -19 -1 -8 3 -5 6 6 6 11 1 17 -2
13 -5z m73 -143 c0 -5 -7 -11 -14 -14 -10 -4 -13 -1 -9 9 6 15 23 19 23 5z
m3584 -87 c3 -8 2 -12 -4 -9 -6 3 -10 10 -10 16 0 14 7 11 14 -7z m-5007 -166
c-2 -13 -4 -5 -4 17 -1 22 1 32 4 23 2 -10 2 -28 0 -40z m1189 25 c-6 -6 -36
9 -36 18 0 5 9 4 20 -3 10 -7 18 -14 16 -15z m104 13 c0 -3 -4 -8 -10 -11 -5
-3 -10 -1 -10 4 0 6 5 11 10 11 6 0 10 -2 10 -4z m2785 -16 c3 -6 -1 -7 -9 -4
-18 7 -21 14 -7 14 6 0 13 -4 16 -10z m-3191 -41 c-3 -5 -10 -7 -15 -3 -5 3
-7 10 -3 15 3 5 10 7 15 3 5 -3 7 -10 3 -15z m-14 -28 c0 -5 -7 -11 -14 -14
-10 -4 -13 -1 -9 9 6 15 23 19 23 5z m3330 -45 c0 -3 -8 -3 -17 -1 -10 2 -22
4 -26 4 -5 1 -5 6 -2 11 6 9 45 -4 45 -14z m83 -23 c-7 -3 -13 -11 -13 -19 0
-18 -34 -18 -49 -1 -15 19 -8 23 36 24 21 0 32 -2 26 -4z m-4154 -78 c0 -5 -4
-3 -9 5 -5 8 -9 22 -9 30 0 16 17 -16 18 -35z m1844 31 c4 -10 0 -12 -15 -8
-15 4 -17 7 -6 13 17 11 15 11 21 -5z m-1023 -110 c0 -3 -4 -8 -10 -11 -5 -3
-10 -1 -10 4 0 6 5 11 10 11 6 0 10 -2 10 -4z m-240 -57 c0 8 3 12 6 8 12 -11
-5 -37 -20 -31 -8 3 -12 12 -9 21 5 12 7 12 14 1 7 -11 9 -10 9 1z m1550 7 c0
-11 -19 -15 -25 -6 -3 5 1 10 9 10 9 0 16 -2 16 -4z m130 -20 c0 -3 -4 -8 -10
-11 -5 -3 -10 -1 -10 4 0 6 5 11 10 11 6 0 10 -2 10 -4z m2050 -6 c0 -5 -5
-10 -11 -10 -5 0 -7 5 -4 10 3 6 8 10 11 10 2 0 4 -4 4 -10z m-3740 -21 c0 -5
3 -8 8 -5 4 2 12 -7 19 -20 8 -18 8 -22 0 -17 -19 12 -47 14 -47 3 0 -6 5 -10
12 -10 6 0 9 -2 6 -5 -3 -3 -13 -3 -22 1 -17 7 -23 34 -6 34 5 0 7 7 4 15 -4
9 0 15 10 15 9 0 16 -5 16 -11z m54 -4 c3 -8 1 -15 -3 -15 -5 0 -11 7 -15 15
-3 8 -1 15 3 15 5 0 11 -7 15 -15z m132 -18 c16 10 24 11 24 4 0 -9 5 -9 20
-1 16 9 18 8 13 -6 -4 -10 -13 -14 -29 -10 -13 4 -28 0 -36 -7 -11 -12 -17
-10 -32 12 -17 23 -17 24 -1 9 16 -15 20 -15 41 -1z m1594 -37 c0 -5 -2 -10
-4 -10 -3 0 -8 5 -11 10 -3 6 -1 10 4 10 6 0 11 -4 11 -10z m-1796 -15 c4 -10
-1 -15 -14 -15 -11 0 -20 7 -20 15 0 8 6 15 14 15 8 0 16 -7 20 -15z m241 -2
c-16 -16 -16 -18 1 -31 18 -13 17 -14 -6 -7 -14 4 -31 10 -37 12 -7 3 -13 -2
-13 -10 0 -26 -15 -27 -16 -1 -2 22 7 29 29 25 4 -1 15 5 23 14 9 8 20 15 25
15 6 0 3 -8 -6 -17z m785 8 c0 -10 -24 -21 -46 -21 -8 0 -14 5 -14 11 0 6 7 9
15 6 8 -4 17 -2 20 3 8 13 25 13 25 1z m2840 -26 c0 -5 -5 -3 -10 5 -5 8 -10
20 -10 25 0 6 5 3 10 -5 5 -8 10 -19 10 -25z m-3826 17 c3 -5 -1 -9 -9 -9 -8
0 -15 4 -15 9 0 4 4 8 9 8 6 0 12 -4 15 -8z m259 1 c-7 -2 -19 -2 -25 0 -7 3
-2 5 12 5 14 0 19 -2 13 -5z m790 -10 c-7 -2 -19 -2 -25 0 -7 3 -2 5 12 5 14
0 19 -2 13 -5z m2833 -43 c17 -15 19 -70 2 -70 -6 0 -8 3 -5 7 4 3 -1 16 -12
27 -14 16 -17 30 -13 56 5 26 7 29 10 13 2 -12 10 -27 18 -33z m-3934 6 c-4
-15 -7 -17 -10 -6 -3 8 -10 18 -16 22 -6 4 -1 6 10 6 16 -2 20 -7 16 -22z
m128 8 c0 -14 3 -14 15 -4 9 8 15 9 15 2 0 -22 -22 -23 -41 -3 -16 17 -17 21
-4 21 8 0 15 -7 15 -16z m-85 -4 c3 -5 1 -10 -4 -10 -6 0 -11 5 -11 10 0 6 2
10 4 10 3 0 8 -4 11 -10z m2925 1 c0 -11 -51 -21 -65 -13 -5 3 1 9 15 13 36
10 50 10 50 0z m44 -3 c-3 -4 -12 -8 -20 -8 -8 0 -14 4 -14 8 0 4 9 8 19 8 11
0 17 -4 15 -8z m-2974 -28 c0 -5 -7 -10 -15 -10 -8 0 -15 5 -15 10 0 6 7 10
15 10 8 0 15 -4 15 -10z m247 4 c-3 -3 -12 -4 -19 -1 -8 3 -5 6 6 6 11 1 17
-2 13 -5z m843 -9 c0 -11 -12 -15 -50 -15 -78 0 -62 26 18 29 22 1 32 -4 32
-14z m3120 1 c0 -3 -4 -8 -10 -11 -5 -3 -10 -1 -10 4 0 6 5 11 10 11 6 0 10
-2 10 -4z m-4680 -20 c0 -2 -8 -10 -17 -17 -16 -13 -17 -12 -4 4 13 16 21 21
21 13z m553 -3 c-7 -2 -19 -2 -25 0 -7 3 -2 5 12 5 14 0 19 -2 13 -5z m107 -3
c0 -5 -2 -10 -4 -10 -3 0 -8 5 -11 10 -3 6 -1 10 4 10 6 0 11 -4 11 -10z m-70
-10 c0 -5 -4 -10 -10 -10 -5 0 -10 5 -10 10 0 6 5 10 10 10 6 0 10 -4 10 -10z
m-40 -39 c-6 -12 -15 -21 -21 -21 -5 0 -2 11 7 25 20 30 31 26 14 -4z m80 19
c0 -17 -41 -33 -54 -20 -8 8 -7 10 5 5 9 -3 22 1 29 10 14 17 20 19 20 5z
m2760 0 c-20 -13 -43 -13 -35 0 3 6 16 10 28 10 18 0 19 -2 7 -10z m-2748 -42
c-7 -7 -12 -8 -12 -2 0 14 12 26 19 19 2 -3 -1 -11 -7 -17z m891 5 c-7 -2 -19
-2 -25 0 -7 3 -2 5 12 5 14 0 19 -2 13 -5z m2120 -20 c16 -8 26 -20 24 -27 -3
-7 -1 -19 3 -26 5 -9 1 -19 -13 -30 -22 -17 -117 -53 -124 -47 -1 2 6 22 17
45 12 24 18 53 16 69 -9 47 9 51 77 16z m-450 -70 c9 -26 15 -49 14 -50 -5 -5
-118 14 -124 21 -10 9 61 76 81 76 7 0 21 -21 29 -47z m-1416 -1 c46 -39 46
-62 1 -78 -20 -7 -58 -16 -83 -20 l-46 -6 20 38 c12 21 21 45 21 52 0 26 20
50 37 46 10 -3 32 -17 50 -32z m-497 -2 c0 -20 2 -25 13 -38 15 -19 19 -52 6
-52 -16 0 -64 40 -65 53 -1 21 16 47 31 47 8 0 15 -4 15 -10z m980 -10 c0 -5
-4 -10 -10 -10 -5 0 -10 5 -10 10 0 6 5 10 10 10 6 0 10 -4 10 -10z m810 -20
c0 -5 -4 -10 -10 -10 -5 0 -10 5 -10 10 0 6 5 10 10 10 6 0 10 -4 10 -10z
m-3187 -25 c-3 -9 -8 -14 -10 -11 -3 3 -2 9 2 15 9 16 15 13 8 -4z m2037 -15
c0 -5 -4 -10 -10 -10 -5 0 -10 5 -10 10 0 6 5 10 10 10 6 0 10 -4 10 -10z
m2396 -12 c-3 -13 -5 -25 -5 -27 -1 -3 -6 0 -12 6 -8 8 -8 15 2 27 18 20 20
20 15 -6z m-2962 -3 c4 -10 -1 -15 -14 -15 -11 0 -20 7 -20 15 0 8 6 15 14 15
8 0 16 -7 20 -15z m1841 5 c3 -5 -8 -16 -24 -25 -38 -19 -41 -19 -41 3 0 12 2
14 8 4 7 -9 13 -8 27 8 21 23 22 23 30 10z m38 -30 c-5 -19 -32 -27 -46 -14
-7 8 35 44 45 38 3 -2 4 -13 1 -24z m-179 4 c8 -21 9 -20 -36 -27 -45 -7 -49
6 -10 27 35 19 39 19 46 0z m33 10 c-3 -3 -12 -4 -19 -1 -8 3 -5 6 6 6 11 1
17 -2 13 -5z m233 -9 c10 -12 10 -15 -4 -15 -9 0 -16 5 -16 11 0 8 -4 8 -14 0
-8 -7 -17 -8 -20 -3 -15 24 35 30 54 7z m-2530 -15 c0 -5 -8 -10 -17 -10 -15
0 -16 2 -3 10 19 12 20 12 20 0z m1203 -9 c5 0 7 -7 5 -13 -5 -15 -35 -17 -62
-5 -33 16 1 27 57 18z m197 -41 c-15 -28 -17 -25 -12 16 4 29 7 33 14 21 5
-11 5 -24 -2 -37z m-800 31 c0 -5 -7 -11 -15 -15 -15 -5 -20 5 -8 17 9 10 23
9 23 -2z m240 -6 c0 -8 -4 -15 -10 -15 -5 0 -10 7 -10 15 0 8 5 15 10 15 6 0
10 -7 10 -15z m-135 -5 c3 -5 1 -10 -4 -10 -6 0 -11 5 -11 10 0 6 2 10 4 10 3
0 8 -4 11 -10z m105 0 c0 -3 -18 -7 -40 -8 -22 -2 -40 2 -40 8 0 5 18 9 40 8
22 -1 40 -4 40 -8z m561 -7 c13 -16 12 -17 -3 -4 -10 7 -18 15 -18 17 0 8 8 3
21 -13z m-8 -27 c4 -10 1 -13 -8 -9 -8 3 -12 9 -9 14 7 12 11 11 17 -5z m75
-48 c-6 -18 -25 -21 -25 -3 0 8 7 15 15 15 7 0 12 -5 10 -12z m-2314 -204 c-3
-35 -14 -44 -14 -12 0 21 7 38 15 38 1 0 1 -12 -1 -26z m4881 -34 c3 -5 1 -10
-4 -10 -6 0 -11 5 -11 10 0 6 2 10 4 10 3 0 8 -4 11 -10z m-4874 -54 c4 -5 4
-17 -1 -27 -11 -20 -2 -52 12 -43 5 4 8 15 5 25 -7 25 9 24 23 -1 6 -11 7 -20
3 -20 -4 0 -2 -5 5 -12 7 -7 12 -26 12 -43 0 -17 4 -35 9 -40 5 -6 14 -28 21
-50 7 -22 23 -56 35 -75 42 -68 59 -110 47 -122 -9 -9 -21 -2 -48 26 -20 20
-42 35 -50 32 -36 -14 -79 100 -94 243 -8 86 -2 189 8 136 2 -11 8 -24 13 -29z
m4739 -31 c0 -8 -6 -15 -12 -15 -10 0 -10 -2 0 -8 13 -8 7 -42 -7 -42 -4 0 -8
-6 -8 -12 -2 -42 -17 -86 -44 -124 -30 -44 -60 -63 -40 -25 6 10 22 63 35 116
14 53 30 103 37 111 15 18 39 18 39 -1z m-4463 -317 c-3 -7 -5 -2 -5 12 0 14
2 19 5 13 2 -7 2 -19 0 -25z m4333 -258 c0 -5 -4 -10 -10 -10 -5 0 -10 5 -10
10 0 6 5 10 10 10 6 0 10 -4 10 -10z"/>
<path d="M7960 8260 c0 -5 5 -10 11 -10 5 0 7 5 4 10 -3 6 -8 10 -11 10 -2 0
-4 -4 -4 -10z"/>
<path d="M5710 11455 c-7 -9 -11 -18 -8 -20 3 -3 11 1 18 10 7 9 11 18 8 20
-3 3 -11 -1 -18 -10z"/>
<path d="M7140 11460 c0 -5 5 -10 10 -10 6 0 10 5 10 10 0 6 -4 10 -10 10 -5
0 -10 -4 -10 -10z"/>
<path d="M7177 11453 c-12 -11 -8 -23 8 -23 8 0 15 7 15 15 0 16 -12 20 -23 8z"/>
<path d="M5207 11410 c7 -25 23 -37 23 -17 0 8 -6 20 -14 26 -12 10 -13 8 -9
-9z"/>
<path d="M5430 11400 c0 -5 5 -10 11 -10 5 0 7 5 4 10 -3 6 -8 10 -11 10 -2 0
-4 -4 -4 -10z"/>
<path d="M5564 11395 c-10 -8 -14 -15 -8 -15 6 0 17 7 24 15 16 19 9 19 -16 0z"/>
<path d="M5285 11300 c-3 -5 -1 -10 4 -10 6 0 11 5 11 10 0 6 -2 10 -4 10 -3
0 -8 -4 -11 -10z"/>
<path d="M5187 11294 c-4 -4 -3 -12 3 -19 10 -13 2 -55 -11 -55 -5 0 -9 -7 -9
-15 0 -8 3 -15 8 -15 9 0 32 49 32 69 0 21 -15 43 -23 35z"/>
<path d="M7670 11280 c0 -5 5 -10 11 -10 5 0 7 5 4 10 -3 6 -8 10 -11 10 -2 0
-4 -4 -4 -10z"/>
<path d="M7735 11210 c-3 -6 1 -7 9 -4 18 7 21 14 7 14 -6 0 -13 -4 -16 -10z"/>
<path d="M7920 11142 c0 -5 7 -9 15 -9 8 0 12 4 9 9 -3 4 -9 8 -15 8 -5 0 -9
-4 -9 -8z"/>
<path d="M4765 11100 c-3 -5 -1 -10 4 -10 6 0 11 5 11 10 0 6 -2 10 -4 10 -3
0 -8 -4 -11 -10z"/>
<path d="M7940 11106 c0 -2 7 -6 15 -10 8 -3 15 -1 15 4 0 6 -7 10 -15 10 -8
0 -15 -2 -15 -4z"/>
<path d="M8010 11071 c0 -3 14 -14 30 -23 31 -18 38 -13 17 12 -12 15 -47 23
-47 11z"/>
<path d="M4310 10728 c0 -4 4 -8 9 -8 6 0 12 4 15 8 3 5 -1 9 -9 9 -8 0 -15
-4 -15 -9z"/>
<path d="M4263 10693 c-18 -7 -16 -20 2 -20 8 0 15 6 15 14 0 7 -1 13 -2 12
-2 0 -9 -3 -15 -6z"/>
<path d="M4241 10636 c-10 -12 -8 -13 8 -9 12 3 18 9 15 14 -7 12 -10 11 -23
-5z"/>
<path d="M4200 10620 c-6 -11 -8 -20 -6 -20 3 0 10 9 16 20 6 11 8 20 6 20 -3
0 -10 -9 -16 -20z"/>
<path d="M4120 10495 c-8 -9 -10 -35 -6 -77 7 -74 -5 -105 -29 -74 -15 20 -15
20 -30 0 -18 -24 -18 -34 0 -57 13 -18 16 -16 52 23 43 48 81 163 61 187 -14
17 -33 16 -48 -2z m36 -37 c-11 -54 -27 -55 -19 0 3 17 10 32 15 32 6 0 8 -13
4 -32z"/>
<path d="M8671 10264 c0 -11 3 -14 6 -6 3 7 2 16 -1 19 -3 4 -6 -2 -5 -13z"/>
<path d="M3740 9755 c0 -8 4 -15 10 -15 5 0 7 7 4 15 -4 8 -8 15 -10 15 -2 0
-4 -7 -4 -15z"/>
<path d="M3684 9699 c-29 -32 -29 -32 -2 -15 14 10 29 24 32 32 8 20 3 18 -30
-17z"/>
<path d="M3561 9606 c-18 -18 -43 -55 -55 -80 -12 -25 -24 -44 -27 -42 -2 2
-4 -9 -5 -25 -1 -16 1 -29 3 -29 2 0 15 24 29 54 14 29 33 62 43 72 15 17 53
84 47 84 -1 0 -17 -15 -35 -34z"/>
<path d="M5775 9270 c3 -5 1 -10 -5 -10 -6 0 -8 -4 -5 -10 10 -16 21 -11 22
10 1 11 -3 20 -8 20 -6 0 -7 -4 -4 -10z"/>
<path d="M5516 9244 c-11 -8 -16 -14 -10 -14 13 0 39 18 34 24 -3 2 -14 -2
-24 -10z"/>
<path d="M5830 9211 c0 -5 7 -11 14 -14 10 -4 13 -1 9 9 -6 15 -23 19 -23 5z"/>
<path d="M5665 9200 c3 -5 8 -10 11 -10 2 0 4 5 4 10 0 6 -5 10 -11 10 -5 0
-7 -4 -4 -10z"/>
<path d="M5340 9135 c-7 -9 -11 -18 -8 -20 3 -3 11 1 18 10 7 9 11 18 8 20 -3
3 -11 -1 -18 -10z"/>
<path d="M5810 9089 c0 -5 5 -7 10 -4 6 3 10 -1 10 -10 0 -9 5 -13 10 -10 18
11 11 35 -10 35 -11 0 -20 -5 -20 -11z"/>
<path d="M7247 9040 c23 -17 44 -38 48 -47 5 -15 7 -15 15 -3 14 22 12 30 -7
30 -9 0 -31 11 -49 25 -18 14 -36 25 -40 25 -5 0 10 -14 33 -30z"/>
<path d="M7330 8998 c-10 -21 -10 -21 3 -6 8 10 17 15 20 11 4 -3 7 -1 7 5 0
20 -19 13 -30 -10z"/>
<path d="M5330 9000 c0 -5 5 -10 11 -10 5 0 7 5 4 10 -3 6 -8 10 -11 10 -2 0
-4 -4 -4 -10z"/>
<path d="M5170 8901 c0 -5 5 -13 10 -16 6 -3 10 -2 10 4 0 5 -4 13 -10 16 -5
3 -10 2 -10 -4z"/>
<path d="M5125 8869 c-4 -6 -5 -12 -2 -15 2 -3 7 2 10 11 7 17 1 20 -8 4z"/>
<path d="M5199 8869 c-11 -6 -10 -9 4 -15 19 -7 53 3 43 13 -10 11 -32 12 -47
2z"/>
<path d="M5240 8834 c0 -8 5 -12 10 -9 6 3 10 10 10 16 0 5 -4 9 -10 9 -5 0
-10 -7 -10 -16z"/>
<path d="M5270 8771 c0 -6 4 -12 8 -15 5 -3 9 1 9 9 0 8 -4 15 -9 15 -4 0 -8
-4 -8 -9z"/>
<path d="M5235 8711 c-6 -11 13 -26 22 -17 4 3 1 6 -6 6 -7 0 -9 5 -6 10 3 6
4 10 1 10 -3 0 -7 -4 -11 -9z"/>
<path d="M7370 8690 c0 -5 5 -10 10 -10 6 0 10 5 10 10 0 6 -4 10 -10 10 -5 0
-10 -4 -10 -10z"/>
<path d="M5160 8559 c0 -5 5 -7 10 -4 6 3 10 8 10 11 0 2 -4 4 -10 4 -5 0 -10
-5 -10 -11z"/>
<path d="M5085 8350 c-3 -5 -1 -10 4 -10 6 0 11 5 11 10 0 6 -2 10 -4 10 -3 0
-8 -4 -11 -10z"/>
<path d="M5116 8323 c-4 -10 -14 -13 -30 -9 -14 3 -28 2 -31 -4 -9 -15 37 -12
75 4 28 11 30 14 12 18 -13 4 -23 0 -26 -9z"/>
<path d="M4547 8228 c-2 -7 -1 -22 3 -33 6 -16 8 -13 7 13 0 35 -2 39 -10 20z"/>
<path d="M4580 8201 c0 -6 9 -9 20 -8 11 1 20 5 20 9 0 4 -9 8 -20 8 -11 0
-20 -4 -20 -9z"/>
<path d="M5961 8164 c0 -11 3 -14 6 -6 3 7 2 16 -1 19 -3 4 -6 -2 -5 -13z"/>
<path d="M6055 8140 c-3 -5 -1 -10 4 -10 6 0 11 5 11 10 0 6 -2 10 -4 10 -3 0
-8 -4 -11 -10z"/>
<path d="M6023 8113 c-3 -10 -8 -22 -10 -28 -3 -5 3 -1 11 9 16 20 21 36 11
36 -3 0 -8 -8 -12 -17z"/>
<path d="M6070 8105 c-11 -13 -10 -14 4 -9 9 3 16 10 16 15 0 13 -6 11 -20 -6z"/>
<path d="M4589 7688 c-10 -41 0 -62 25 -52 17 6 17 8 2 16 -9 5 -14 13 -11 18
3 5 1 11 -5 15 -5 3 -10 5 -11 3z"/>
<path d="M4543 7633 c9 -2 15 -9 12 -14 -4 -5 -2 -9 3 -9 6 0 12 7 16 15 4 11
-2 15 -22 14 -17 -1 -20 -3 -9 -6z"/>
<path d="M8340 7611 c0 -5 5 -13 10 -16 6 -3 10 -2 10 4 0 5 -4 13 -10 16 -5
3 -10 2 -10 -4z"/>
<path d="M8353 7566 c-10 -11 -9 -15 3 -20 10 -4 13 -2 8 6 -5 8 -2 9 11 4 15
-5 16 -4 5 9 -15 18 -12 18 -27 1z"/>
<path d="M4625 7550 c-3 -5 1 -10 10 -10 9 0 13 5 10 10 -3 6 -8 10 -10 10 -2
0 -7 -4 -10 -10z"/>
<path d="M8350 7519 c0 -5 5 -7 10 -4 6 3 10 8 10 11 0 2 -4 4 -10 4 -5 0 -10
-5 -10 -11z"/>
<path d="M8386 7498 c3 -4 12 -8 20 -8 8 0 14 4 14 8 0 4 -9 8 -19 8 -11 0
-17 -4 -15 -8z"/>
<path d="M4776 7465 c-3 -9 0 -15 9 -15 8 0 15 7 15 15 0 8 -4 15 -9 15 -5 0
-11 -7 -15 -15z"/>
<path d="M6067 7465 c-4 -8 -2 -17 3 -20 6 -4 10 3 10 14 0 25 -6 27 -13 6z"/>
<path d="M6121 7444 c0 -11 3 -14 6 -6 3 7 2 16 -1 19 -3 4 -6 -2 -5 -13z"/>
<path d="M8165 7440 c-11 -17 5 -50 25 -50 17 0 34 -25 26 -38 -2 -4 9 -7 25
-8 29 -1 29 -1 -16 38 -25 22 -43 44 -40 48 3 5 1 11 -4 14 -5 4 -12 2 -16 -4z"/>
<path d="M8307 7416 c-16 -12 -16 -13 7 -13 17 0 23 4 19 13 -6 17 -4 17 -26
0z"/>
<path d="M5930 7400 c0 -5 5 -10 11 -10 5 0 7 5 4 10 -3 6 -8 10 -11 10 -2 0
-4 -4 -4 -10z"/>
<path d="M8310 7379 c0 -5 5 -7 10 -4 6 3 10 8 10 11 0 2 -4 4 -10 4 -5 0 -10
-5 -10 -11z"/>
<path d="M6180 7345 c0 -14 4 -25 9 -25 4 0 6 11 3 25 -2 14 -6 25 -8 25 -2 0
-4 -11 -4 -25z"/>
<path d="M8307 7346 c-5 -12 -2 -23 10 -31 10 -8 20 -11 23 -9 2 3 -1 8 -7 12
-6 4 -12 16 -15 27 -3 19 -4 19 -11 1z"/>
<path d="M8261 7323 c-1 -17 16 -25 25 -12 4 7 3 9 -4 5 -5 -3 -13 0 -15 6 -4
9 -6 10 -6 1z"/>
<path d="M8261 7273 c10 -2 19 -13 22 -25 3 -12 10 -17 17 -13 15 9 -17 45
-39 44 -14 -1 -14 -2 0 -6z"/>
<path d="M8791 7254 c0 -11 3 -14 6 -6 3 7 2 16 -1 19 -3 4 -6 -2 -5 -13z"/>
<path d="M8250 7231 c0 -5 5 -13 10 -16 6 -3 10 -2 10 4 0 5 -4 13 -10 16 -5
3 -10 2 -10 -4z"/>
<path d="M6705 7200 c4 -6 11 -8 16 -5 14 9 11 15 -7 15 -8 0 -12 -5 -9 -10z"/>
<path d="M6728 7153 c7 -3 16 -2 19 1 4 3 -2 6 -13 5 -11 0 -14 -3 -6 -6z"/>
<path d="M8306 7137 c3 -10 9 -15 12 -12 3 3 0 11 -7 18 -10 9 -11 8 -5 -6z"/>
<path d="M8368 7124 c3 -15 14 -36 25 -47 l20 -20 -7 24 c-4 13 -10 34 -13 47
-8 32 -31 29 -25 -4z"/>
<path d="M6256 7113 c-6 -14 -5 -15 5 -6 7 7 10 15 7 18 -3 3 -9 -2 -12 -12z"/>
<path d="M4369 7103 c-1 -10 0 -26 1 -37 1 -10 -3 -15 -8 -12 -6 4 -14 1 -18
-5 -4 -8 -3 -9 4 -5 7 4 12 1 12 -8 0 -8 -6 -17 -12 -19 -10 -4 -10 -6 0 -6 6
-1 12 -10 12 -20 0 -11 5 -32 10 -47 10 -25 12 -26 28 -11 17 16 18 15 18 -11
-1 -15 -7 -31 -14 -35 -10 -7 -10 -12 -1 -23 8 -10 8 -14 0 -14 -7 0 -6 -9 5
-25 10 -15 13 -32 9 -42 -5 -10 -8 -21 -7 -25 1 -3 -5 -9 -14 -12 -12 -5 -12
-1 3 24 14 24 15 32 4 42 -10 11 -12 9 -9 -7 2 -12 -2 -19 -9 -17 -7 1 -13 -7
-13 -18 0 -12 -7 -20 -17 -20 -15 0 -16 -2 -3 -10 10 -6 11 -10 3 -10 -19 0
-16 -18 5 -23 14 -4 15 -5 1 -6 -18 -1 -32 -32 -31 -66 1 -42 7 -65 16 -65 6
0 5 -5 -2 -12 -7 -7 -12 -23 -12 -37 0 -19 3 -22 9 -12 6 9 10 4 13 -18 3 -18
0 -35 -5 -38 -6 -3 -7 -1 -3 5 4 7 3 12 -2 12 -14 0 -9 -49 6 -55 15 -5 16
-37 2 -51 -14 -14 -2 -71 16 -78 19 -7 18 4 -3 34 -16 22 -16 23 0 17 9 -3 17
-2 17 3 0 6 -4 10 -10 10 -5 0 -10 4 -10 10 0 5 6 7 13 4 10 -4 12 3 9 25 -2
17 -9 29 -14 28 -6 -1 -12 3 -15 10 -3 7 3 9 16 6 20 -5 26 -20 22 -50 -1 -7
3 -13 8 -13 12 0 2 -32 -13 -42 -6 -4 -7 -10 -3 -14 3 -4 13 -1 22 6 21 17 19
1 -2 -23 -10 -11 -12 -17 -5 -13 7 4 12 1 12 -8 0 -9 -4 -16 -9 -16 -5 0 -7
-9 -4 -20 4 -15 11 -19 25 -14 15 4 18 3 13 -6 -4 -7 -2 -16 6 -21 7 -4 14
-23 14 -41 4 -96 5 -102 17 -90 7 7 18 12 26 12 12 0 12 -3 2 -15 -7 -8 -9
-22 -6 -32 4 -9 1 -20 -6 -24 -10 -7 -10 -11 1 -21 11 -10 14 -10 18 0 8 21
21 13 19 -12 -1 -20 -4 -22 -23 -15 -19 7 -23 5 -23 -12 0 -13 4 -18 12 -13 8
5 9 2 5 -9 -7 -18 15 -19 41 -3 10 6 12 3 10 -10 -2 -11 2 -18 10 -17 6 2 12
-2 12 -8 0 -6 -7 -9 -15 -6 -8 4 -17 2 -20 -3 -3 -5 -12 -7 -19 -4 -7 3 -16
-3 -20 -13 -3 -10 -9 -24 -12 -30 -3 -7 -1 -13 5 -13 6 0 11 7 11 15 0 8 6 12
14 9 8 -3 12 -12 10 -19 -3 -7 4 -19 16 -25 25 -13 26 -13 39 20 8 21 10 22
10 5 1 -32 -15 -48 -42 -43 -22 4 -25 2 -21 -20 3 -14 7 -29 10 -34 3 -5 0
-15 -6 -23 -10 -12 -10 -19 1 -32 8 -10 9 -14 2 -10 -6 4 -14 3 -18 -3 -3 -5
-1 -10 4 -10 6 0 11 -5 11 -11 0 -5 -4 -7 -10 -4 -14 9 -12 -8 3 -25 10 -12 9
-12 -6 -1 -9 8 -21 11 -24 7 -4 -4 -2 -10 5 -15 14 -9 28 -71 15 -71 -5 0 -9
-16 -10 -35 -1 -19 2 -35 6 -35 6 0 10 -19 12 -62 0 -10 9 -23 20 -28 22 -12
26 -32 5 -24 -8 3 -17 1 -21 -5 -3 -6 -2 -11 4 -11 6 0 17 -13 26 -30 15 -28
14 -30 -3 -30 -21 0 -81 118 -132 261 -16 45 -31 84 -34 87 -3 3 -17 -1 -30
-8 -29 -15 -116 -98 -116 -109 0 -4 -9 -18 -20 -31 -18 -20 -20 -32 -14 -84 8
-83 54 -178 154 -316 46 -63 108 -151 138 -195 30 -44 67 -94 83 -110 16 -17
29 -36 29 -43 0 -7 4 -12 9 -12 12 0 87 -99 83 -111 -1 -5 1 -8 6 -7 4 2 61
-55 127 -126 156 -168 646 -648 830 -815 39 -34 75 -67 80 -72 134 -125 312
-283 350 -311 28 -20 85 -52 128 -72 42 -20 77 -42 77 -50 0 -17 90 -57 263
-116 124 -42 144 -52 192 -97 29 -28 61 -65 70 -83 12 -23 19 -29 25 -20 4 7
10 8 13 3 5 -8 52 -10 52 -3 0 1 12 3 28 4 19 1 26 -2 23 -11 -3 -7 -1 -13 4
-13 6 0 10 5 10 12 0 9 3 9 12 0 18 -18 31 -14 25 7 -6 26 6 43 26 35 9 -3 14
-11 10 -18 -4 -6 7 3 25 19 18 17 34 28 35 25 2 -3 11 1 19 8 13 10 17 10 22
-3 3 -9 11 -13 17 -9 8 5 8 1 0 -14 -18 -33 -13 -34 24 -5 29 24 32 29 21 43
-12 12 -12 17 -1 27 10 10 16 9 24 -1 6 -7 8 -16 4 -19 -3 -4 3 -7 15 -7 13 0
22 6 22 15 0 8 7 15 16 15 9 0 12 -5 8 -12 -7 -13 12 3 64 49 13 13 29 20 34
17 4 -3 7 0 6 6 -3 13 59 43 66 31 6 -9 -30 -41 -38 -34 -3 4 -6 1 -6 -6 0 -9
6 -11 18 -6 9 4 31 12 47 18 38 13 42 16 27 26 -8 5 -5 12 10 25 17 15 20 16
15 3 -3 -9 -2 -19 3 -22 6 -4 10 -1 10 4 0 24 21 9 27 -19 7 -35 6 -35 40 -12
15 9 24 11 20 5 -5 -7 -4 -13 2 -13 6 0 11 8 11 19 0 19 25 31 48 24 6 -3 10
-9 7 -14 -4 -5 0 -6 8 -3 8 3 18 0 22 -5 3 -6 11 -9 16 -5 6 3 9 -2 7 -11 -2
-10 3 -20 10 -22 6 -3 12 -1 12 4 0 5 7 18 16 29 13 16 15 16 10 2 -3 -12 0
-18 9 -18 8 0 15 -4 15 -10 0 -5 -5 -10 -11 -10 -5 0 -7 -5 -3 -11 5 -8 8 -8
14 0 3 7 13 9 21 6 9 -3 26 15 49 55 19 33 39 58 44 57 4 -2 24 -31 42 -66 19
-35 43 -72 55 -82 21 -18 22 -18 60 1 21 11 49 20 63 20 14 0 28 5 31 10 4 6
-10 10 -34 10 -47 0 -84 27 -141 104 -66 91 -95 161 -105 262 -5 49 -5 49 10
21 9 -15 13 -31 11 -36 -7 -11 22 -23 35 -15 14 9 10 27 -5 21 -20 -8 -11 130
10 154 11 12 13 27 9 52 -5 26 -3 36 9 40 9 4 16 11 16 18 0 6 -7 9 -15 5 -17
-6 -20 20 -5 44 5 9 5 19 -1 27 -13 14 0 38 20 38 8 0 16 6 19 13 3 9 -4 11
-20 8 -21 -3 -23 -1 -22 33 2 52 3 55 17 43 10 -8 13 -6 14 9 1 11 -1 18 -5
15 -4 -2 -7 11 -7 29 0 18 3 31 6 29 4 -2 10 3 13 12 3 8 11 12 17 8 8 -4 8 0
0 15 -7 12 -9 27 -5 33 4 7 3 8 -5 4 -6 -4 -9 -16 -6 -26 3 -10 2 -21 -3 -24
-8 -4 -9 55 -3 117 1 5 6 5 12 1 8 -5 8 -1 0 14 -6 11 -16 22 -23 25 -10 3 -9
9 4 23 12 14 14 24 7 37 -8 13 -7 22 1 32 7 8 10 20 8 27 -3 7 2 19 9 27 20
20 0 39 -22 21 -15 -12 -15 -11 -4 16 7 16 16 33 21 38 4 6 8 15 8 20 0 6 -5
4 -10 -4 -6 -9 -10 -10 -10 -3 0 7 10 17 21 24 17 9 20 8 14 -3 -3 -7 0 -4 9
6 21 26 10 39 -17 21 -22 -14 -22 -13 -22 33 0 41 3 48 20 48 11 0 27 -9 37
-21 27 -33 30 -11 3 29 -14 20 -25 41 -25 46 0 5 -10 26 -22 47 l-21 38 31
-35 c17 -19 31 -42 32 -50 1 -22 57 -87 57 -66 0 9 -5 16 -10 16 -6 0 -7 3 -4
7 4 3 2 12 -5 20 -6 7 -8 16 -5 20 3 3 0 18 -9 34 -9 19 -11 29 -3 29 6 0 9 6
6 13 -2 6 -12 11 -22 9 -12 -3 -16 1 -12 12 3 8 -1 20 -9 27 -8 7 -13 18 -10
26 3 7 2 13 -3 13 -10 0 -34 51 -27 57 3 3 -2 12 -10 20 -8 9 -13 22 -10 29 3
8 2 14 -2 14 -5 0 -20 19 -35 43 -15 23 -51 67 -80 98 l-53 55 17 34 c22 45
32 71 33 90 1 8 9 14 18 12 13 -2 17 7 20 40 2 34 7 43 20 42 15 -1 16 2 6 20
-10 19 -10 20 6 7 9 -8 19 -11 23 -7 3 3 1 6 -5 6 -7 0 -11 12 -10 29 1 16 -4
37 -12 48 -14 17 -13 17 8 -1 12 -11 22 -31 22 -45 1 -22 2 -23 10 -9 11 18 4
48 -11 48 -5 0 -9 12 -9 26 0 21 4 24 20 19 11 -4 20 -2 20 4 0 6 -4 11 -10
11 -5 0 -10 5 -10 11 0 6 7 9 15 6 19 -8 31 13 14 24 -8 5 -17 3 -21 -4 -4 -7
-7 4 -5 25 1 21 6 33 12 30 29 -18 40 -10 43 30 1 23 8 49 15 57 9 12 9 13 0
7 -7 -4 -13 -2 -13 3 0 6 5 11 11 11 7 0 9 11 6 30 -5 22 -2 32 11 39 15 9 14
10 -5 11 -16 0 -21 4 -17 15 4 8 1 15 -5 15 -7 0 -5 9 5 25 9 14 23 25 31 25
10 0 13 6 9 16 -3 9 -6 22 -6 30 0 9 -4 12 -10 9 -6 -3 -7 1 -3 10 4 13 8 14
14 4 5 -9 12 -2 22 22 15 37 13 49 -5 31 -21 -21 -38 -14 -35 16 4 34 15 54
27 47 11 -7 40 5 40 16 0 5 -7 9 -16 9 -8 0 -12 5 -9 10 4 6 10 8 15 5 5 -3 8
3 8 12 -2 27 22 93 33 93 6 0 7 5 4 11 -4 5 -4 22 0 37 5 20 8 23 16 11 5 -7
9 -9 9 -4 0 6 -4 17 -10 25 -6 9 -5 17 3 23 8 6 6 7 -6 3 -13 -4 -18 -1 -16
12 5 31 -12 92 -24 89 -7 -1 -11 8 -9 27 3 20 0 26 -9 21 -9 -6 -10 -2 -6 16
4 13 7 27 7 31 0 4 8 6 18 5 13 -1 17 -7 15 -21 -2 -12 8 -34 23 -51 16 -18
24 -23 20 -12 -3 10 1 34 9 53 14 33 13 35 -4 29 -13 -4 -20 0 -24 15 -3 11
-1 18 4 14 5 -3 9 2 9 10 0 14 3 14 20 4 10 -7 22 -9 26 -5 11 11 -18 38 -35
32 -10 -3 -22 4 -30 18 -12 19 -12 20 0 11 8 -6 25 -11 38 -9 20 1 24 7 25 32
1 17 -1 30 -4 28 -3 -2 -5 15 -5 36 -1 21 3 39 7 39 4 0 8 -5 8 -11 0 -6 7 -9
15 -5 13 4 14 2 5 -14 -8 -16 -8 -18 5 -14 8 3 14 16 13 29 -2 18 -6 21 -14
14 -9 -7 -16 -5 -23 10 -8 14 -8 21 2 24 9 3 7 10 -5 23 -14 14 -18 15 -18 4
0 -11 -3 -11 -12 -2 -8 8 -8 15 3 28 12 15 12 16 -10 9 -28 -9 -20 12 9 23 15
6 16 9 4 20 -12 11 -14 10 -14 -4 0 -13 -3 -14 -15 -4 -8 7 -12 17 -8 23 3 5
1 7 -5 3 -6 -3 -13 -2 -17 4 -3 5 1 10 9 10 10 0 13 6 10 15 -8 19 -24 20 -24
1 0 -8 -7 -16 -15 -20 -8 -3 -15 -11 -15 -18 0 -9 3 -9 10 2 9 13 13 12 30 -9
25 -29 25 -42 0 -48 -11 -3 -20 -10 -20 -15 0 -5 5 -6 11 -2 7 4 7 -2 -1 -16
-11 -20 -9 -25 9 -39 12 -9 19 -20 16 -23 -4 -4 -15 1 -25 10 -21 17 -53 26
-44 11 3 -5 12 -9 20 -9 8 0 14 -9 14 -20 0 -21 -17 -22 -70 -5 -23 7 -26 -4
-7 -25 6 -8 0 -5 -14 8 -19 17 -25 31 -24 58 2 30 -1 35 -16 31 -12 -3 -16 0
-12 9 3 8 2 14 -2 14 -15 0 -34 -35 -35 -62 0 -20 -4 -26 -15 -22 -9 4 -18 -1
-21 -11 -10 -24 -22 0 -16 30 3 20 8 23 22 15 15 -8 17 -6 13 9 -3 12 -11 17
-19 14 -8 -3 -14 0 -14 7 0 13 -41 3 -51 -12 -4 -6 -17 -15 -29 -21 -31 -16
-37 -37 -11 -37 12 0 20 3 18 8 -1 4 3 8 8 10 6 1 11 -9 13 -22 2 -16 8 -23
17 -20 7 3 16 1 20 -5 3 -7 0 -8 -9 -5 -11 4 -16 0 -16 -11 0 -14 -3 -15 -14
-6 -11 9 -15 8 -21 -6 -5 -10 -9 -25 -9 -33 0 -8 -5 -19 -11 -23 -7 -6 -6 -10
3 -14 18 -7 4 -23 -14 -16 -10 4 -15 1 -14 -8 5 -34 -2 -50 -24 -59 -13 -5
-29 -17 -36 -27 -10 -16 -10 -15 -5 5 4 13 2 22 -4 22 -6 0 -11 -5 -11 -11 0
-6 -7 -8 -16 -5 -9 4 -23 1 -31 -6 -8 -7 -22 -13 -31 -15 -9 -1 -18 -7 -20
-12 -2 -6 -11 -8 -20 -3 -20 9 -40 8 -64 -3 -25 -10 -22 -23 5 -20 12 1 14 0
5 -2 -9 -2 -22 -11 -28 -18 -10 -12 -15 -11 -31 8 -10 12 -18 16 -19 10 0 -7
6 -13 13 -13 6 0 4 -5 -6 -11 -9 -6 -27 -7 -40 -4 -15 4 -18 4 -8 -3 11 -8 11
-10 0 -15 -8 -4 15 -3 50 0 l64 6 -19 -25 c-15 -20 -23 -24 -36 -17 -10 6 -18
6 -18 2 0 -5 -9 -14 -21 -21 -12 -8 -18 -9 -14 -3 3 6 -1 11 -10 11 -12 0 -15
-5 -11 -16 5 -14 4 -15 -8 -5 -11 10 -25 5 -68 -21 -29 -17 -56 -36 -59 -41
-4 -5 -9 -5 -13 1 -3 6 -15 8 -26 5 -12 -3 -22 1 -26 11 -3 9 -11 16 -16 16
-6 0 -8 -7 -5 -15 4 -8 1 -17 -5 -21 -7 -4 -8 -3 -4 4 10 16 -41 35 -62 23
-10 -6 -24 -4 -39 6 -20 13 -23 13 -18 1 4 -9 0 -15 -9 -15 -8 0 -18 7 -20 14
-3 8 -10 12 -15 8 -6 -3 -8 -12 -4 -20 3 -8 0 -15 -7 -15 -7 0 -10 -7 -6 -16
3 -8 2 -12 -4 -9 -6 3 -10 -1 -10 -11 0 -13 -3 -14 -15 -4 -18 15 -20 31 -3
28 15 -4 17 64 3 74 -7 5 -6 14 3 28 15 24 16 40 2 40 -5 0 -16 -15 -24 -32
-8 -18 -15 -26 -15 -17 -1 9 -8 23 -17 30 -15 12 -16 11 -9 -10 6 -20 4 -23
-10 -18 -9 4 -19 7 -22 7 -4 0 2 9 11 19 10 11 25 17 37 14 13 -4 19 0 19 11
0 10 -4 15 -9 11 -5 -3 -12 -1 -16 5 -3 5 -2 10 3 10 5 0 12 9 15 19 3 14 11
18 26 14 13 -3 21 -1 21 7 0 7 -7 10 -15 6 -23 -9 -18 18 10 50 22 25 25 35
18 69 -10 56 -8 77 12 119 14 29 15 39 5 51 -7 8 -10 24 -7 34 3 11 -1 22 -8
25 -9 3 -12 19 -8 50 2 27 0 46 -5 46 -10 0 -28 72 -25 100 1 8 -4 18 -10 22
-9 6 -9 8 1 8 6 0 12 9 12 21 0 11 -4 17 -10 14 -5 -3 -10 -2 -10 4 0 5 5 13
10 16 6 3 10 13 10 21 0 8 -5 12 -10 9 -6 -4 -8 -11 -5 -16 7 -11 -6 -12 -20
-1 -14 9 -17 52 -4 52 6 0 6 7 0 19 -6 10 -7 22 -3 27 4 5 -2 2 -12 -6 -11 -8
-31 -16 -45 -16 -44 -2 -47 -3 -48 -26 -2 -20 -1 -21 8 -5 14 25 32 11 18 -14
-8 -16 -13 -18 -25 -8 -8 6 -14 18 -14 25 0 17 -26 19 -36 2 -4 -6 -3 -8 3 -5
15 9 26 -21 24 -60 -2 -28 1 -33 20 -33 12 0 19 -3 16 -6 -4 -4 12 -29 34 -55
22 -27 38 -53 34 -59 -3 -5 0 -10 8 -10 7 0 24 -22 36 -48 33 -70 38 -163 7
-145 -6 4 -6 0 2 -9 9 -11 10 -18 2 -23 -5 -3 -10 -2 -10 3 0 5 -10 8 -22 8
-17 -1 -23 5 -24 24 -1 14 2 33 7 42 10 19 1 51 -11 43 -13 -8 -19 7 -21 57
-2 42 -4 45 -21 35 -10 -7 -18 -15 -18 -19 0 -17 -2 -24 -12 -36 -6 -7 -16
-11 -22 -11 -18 3 -49 -13 -81 -43 -16 -15 -33 -28 -37 -28 -5 0 -8 -7 -8 -15
0 -8 -9 -15 -19 -15 -11 0 -22 -4 -25 -8 -2 -4 -19 -9 -36 -10 -18 -1 -41 -12
-52 -25 -11 -12 -17 -17 -14 -11 3 7 -1 15 -10 18 -8 3 -12 2 -9 -4 3 -5 -3
-8 -14 -7 -11 0 -18 4 -15 8 10 16 -20 21 -31 6 -13 -18 -30 -24 -20 -7 3 6 1
10 -4 10 -6 0 -11 -5 -11 -11 0 -5 -5 -7 -11 -3 -7 4 -21 7 -33 8 -12 1 -25
11 -31 24 -9 19 -24 27 -47 23 -5 0 -8 6 -8 14 0 8 -3 14 -7 13 -17 -4 -59 16
-71 34 -7 10 -18 16 -23 13 -5 -4 -9 -1 -9 6 0 8 -4 8 -15 -1 -8 -7 -15 -20
-15 -29 0 -9 -13 -27 -29 -41 -17 -13 -28 -27 -25 -32 3 -4 -2 -8 -10 -8 -9 0
-16 -4 -16 -10 0 -15 -41 -33 -78 -35 -29 -1 -35 3 -48 33 -15 36 -19 123 -6
136 4 4 7 11 8 14 1 15 29 68 44 84 41 45 59 75 39 63 -8 -5 -6 1 5 13 18 21
18 22 1 28 -11 5 -22 1 -30 -9 -7 -10 -16 -17 -20 -17 -4 0 -2 7 5 15 10 12
10 15 -3 15 -8 0 -17 5 -19 11 -2 6 -16 -4 -32 -22 -17 -19 -22 -30 -13 -26
19 7 33 -8 16 -18 -5 -4 -8 -13 -5 -20 2 -7 -2 -16 -10 -19 -9 -3 -13 -10 -10
-15 8 -13 -19 -62 -29 -53 -5 4 -2 -4 6 -18 8 -14 13 -38 11 -53 -3 -25 -6
-27 -19 -15 -14 11 -16 10 -11 -10 6 -20 4 -22 -10 -10 -14 11 -15 10 -7 -7 4
-11 8 -28 9 -37 0 -10 4 -18 9 -18 5 0 7 -6 4 -14 -3 -7 -1 -18 4 -23 6 -6 12
-34 14 -62 2 -31 11 -61 21 -72 9 -11 22 -29 28 -40 6 -12 15 -21 20 -19 5 1
13 -5 18 -13 5 -10 16 -13 30 -9 20 5 20 3 -7 -20 -20 -18 -34 -23 -41 -17 -8
6 -14 4 -18 -7 -5 -14 -1 -16 21 -11 16 3 36 9 45 12 22 9 36 -21 19 -38 -9
-9 -16 -9 -30 0 -15 10 -20 9 -25 -2 -4 -11 2 -15 19 -15 30 0 34 -30 8 -51
-12 -10 -15 -11 -9 -1 4 7 2 20 -5 28 -11 14 -16 12 -42 -17 -15 -18 -26 -41
-24 -50 5 -18 -23 -21 -35 -5 -3 5 -13 11 -22 12 -8 1 -35 5 -58 9 -27 4 -38
3 -30 -3 11 -8 11 -10 -2 -15 -8 -3 -16 -2 -18 2 -5 14 -68 24 -68 12 0 -6 -7
-11 -15 -11 -8 0 -15 -4 -15 -10 0 -5 -5 -10 -11 -10 -5 0 -7 5 -4 10 3 6 2
10 -4 10 -5 0 -12 -8 -14 -17 -3 -10 -5 -3 -6 15 -1 31 -10 38 -48 33 -7 -1
-13 5 -13 14 0 8 -7 15 -17 15 -14 0 -14 2 3 21 19 22 19 22 -6 14 -28 -9 -70
-15 -70 -10 0 2 7 11 16 19 12 13 12 16 2 16 -8 0 -20 -6 -27 -12 -11 -11 -12
-9 -2 8 9 18 7 23 -9 27 -11 3 -20 1 -20 -4 0 -5 -4 -9 -10 -9 -5 0 -7 8 -3
18 6 16 5 16 -13 1 -10 -9 -28 -19 -39 -21 -11 -3 -29 -9 -39 -14 -14 -5 -17
-4 -12 4 9 15 -21 16 -63 1 -35 -12 -50 -7 -34 13 22 27 11 98 -15 98 -15 0
-74 -38 -62 -41 3 0 14 -2 24 -4 10 -2 25 -10 33 -17 11 -12 10 -18 -12 -38
-20 -19 -30 -22 -42 -14 -21 13 -31 39 -12 32 8 -4 22 -9 32 -13 13 -6 17 -2
17 15 0 12 -4 18 -10 15 -6 -4 -19 3 -28 16 -16 18 -22 20 -40 10 -18 -9 -22
-9 -22 3 0 7 7 16 15 20 12 4 13 10 3 31 -6 14 -17 25 -25 25 -7 0 -13 5 -13
11 0 13 -69 10 -87 -4 -9 -6 -13 -6 -13 2 0 6 -9 11 -20 11 -11 0 -20 7 -20
15 0 8 -4 15 -10 15 -5 0 -10 -4 -10 -10 0 -5 -7 -10 -16 -10 -8 0 -12 5 -9
10 9 14 -17 12 -56 -4 -32 -13 -36 -13 -55 8 -11 13 -18 28 -16 35 2 6 -1 11
-7 11 -6 0 -11 -4 -11 -9 0 -5 -13 -11 -29 -13 -17 -2 -28 -1 -25 4 3 4 14 8
25 8 26 0 37 30 16 45 -12 8 -13 15 -5 23 6 6 8 18 4 28 -6 16 -7 16 -19 0 -6
-9 -22 -18 -35 -21 -21 -4 -23 -1 -17 25 11 48 -1 70 -35 65 l-30 -4 15 30
c14 26 14 29 0 29 -9 0 -13 5 -10 10 3 6 2 10 -4 10 -5 0 -11 -10 -13 -21 -2
-12 -13 -25 -24 -30 -19 -6 -21 -4 -16 13 2 11 0 23 -6 27 -7 4 -8 12 -2 21
12 19 23 7 23 -25 0 -14 3 -25 8 -25 5 0 8 22 6 49 -2 46 -3 48 -19 34 -16
-14 -18 -13 -24 11 -3 14 -11 26 -16 26 -6 0 -8 7 -4 15 3 8 1 15 -4 15 -5 0
-7 14 -3 30 3 19 1 30 -6 30 -6 0 -11 -6 -11 -12 0 -7 -11 -21 -24 -30 -23
-17 -24 -17 -19 2 3 11 12 20 19 20 8 0 14 10 14 21 0 18 -2 19 -15 9 -19 -16
-20 3 -1 22 11 12 11 17 0 33 -7 10 -10 23 -7 29 4 6 -10 -2 -30 -17 -24 -18
-37 -23 -38 -15 -1 7 -3 24 -4 38 -2 14 4 31 13 39 15 12 15 13 -3 7 -15 -6
-17 -4 -8 5 7 7 9 19 3 34 -5 14 -5 26 2 33 6 6 6 12 -1 16 -6 4 -11 -1 -12
-11z m2557 -122 c0 -11 -4 -17 -8 -15 -4 3 -8 12 -8 20 0 8 4 14 8 14 4 0 8
-9 8 -19z m-2445 -148 c10 -68 5 -79 -11 -24 -5 19 -5 31 1 31 5 0 10 -3 10
-7z m19 -77 c0 -3 -4 -8 -10 -11 -5 -3 -10 -1 -10 4 0 6 5 11 10 11 6 0 10 -2
10 -4z m-65 -16 c3 -5 -1 -10 -10 -10 -9 0 -13 5 -10 10 3 6 8 10 10 10 2 0 7
-4 10 -10z m8 -105 c4 -43 4 -46 -6 -22 -6 15 -16 27 -23 27 -20 0 -22 23 -5
47 20 26 26 16 34 -52z m-78 34 c-4 -6 1 -16 11 -24 18 -13 18 -14 1 -11 -24
3 -40 28 -24 38 16 11 19 10 12 -3z m115 -38 c0 -21 -13 -4 -17 22 -2 17 -1
19 7 7 5 -8 10 -21 10 -29z m3730 -2 c0 -5 -4 -9 -8 -9 -5 0 -9 7 -9 15 0 8 4
12 9 9 4 -3 8 -9 8 -15z m-1290 7 c0 -3 -4 -8 -10 -11 -5 -3 -10 -1 -10 4 0 6
5 11 10 11 6 0 10 -2 10 -4z m-2562 -29 c2 -9 -2 -17 -8 -17 -6 0 -8 5 -4 11
3 6 0 16 -7 21 -12 8 -11 9 1 5 8 -2 16 -11 18 -20z m246 5 c3 -5 -1 -9 -9 -9
-8 0 -12 4 -9 9 3 4 7 8 9 8 2 0 6 -4 9 -8z m3591 -12 c-3 -5 -12 -10 -18 -10
-7 0 -6 4 3 10 19 12 23 12 15 0z m36 -23 c-6 -6 -11 -20 -11 -31 0 -25 -5
-18 -14 17 -4 19 -3 26 4 22 5 -3 10 -1 10 5 0 6 5 8 11 4 8 -4 8 -9 0 -17z
m-3751 -7 c0 -5 -5 -10 -11 -10 -5 0 -7 5 -4 10 3 6 8 10 11 10 2 0 4 -4 4
-10z m3434 -14 c-6 -16 -24 -23 -24 -8 0 10 22 33 27 28 2 -2 1 -11 -3 -20z
m-3548 -12 c-4 -9 -9 -15 -11 -12 -3 3 -3 13 1 22 4 9 9 15 11 12 3 -3 3 -13
-1 -22z m272 -2 c2 -7 -1 -12 -8 -12 -6 0 -9 4 -6 9 4 5 1 12 -4 14 -6 3 -5 4
2 3 6 -1 14 -8 16 -14z m50 -45 c-11 -21 -11 -21 -18 -2 -9 25 -4 36 15 29 12
-5 12 -10 3 -27z m3447 25 c-2 -2 1 -10 8 -18 38 -42 39 -44 20 -45 -11 0 -13
-3 -5 -6 21 -8 14 -36 -8 -30 -13 3 -18 1 -13 -6 4 -7 -1 -5 -11 3 -14 11 -15
15 -4 20 16 6 17 56 1 53 -7 -2 -11 6 -10 16 0 10 7 18 14 18 7 0 11 -2 8 -5z
m62 -9 c-4 -3 0 -15 10 -25 9 -10 12 -18 7 -18 -12 0 -34 36 -27 44 4 3 9 6
11 6 3 0 2 -3 -1 -7z m-243 -38 c-4 -8 -11 -15 -16 -15 -6 0 -7 -11 -4 -25 4
-17 0 -30 -16 -45 -17 -16 -18 -19 -5 -15 10 4 17 2 17 -5 0 -6 -8 -10 -17 -8
-10 2 -17 12 -17 21 2 13 -3 16 -17 12 -11 -4 -19 -2 -19 4 0 6 16 11 35 11
34 0 46 12 24 25 -7 5 -2 16 12 31 26 28 31 30 23 9z m36 -5 c0 -5 -5 -10 -11
-10 -5 0 -7 5 -4 10 3 6 8 10 11 10 2 0 4 -4 4 -10z m123 -5 c-3 -9 -8 -14
-10 -11 -3 3 -2 9 2 15 9 16 15 13 8 -4z m-3713 -9 c0 -3 -4 -8 -10 -11 -5 -3
-10 -1 -10 4 0 6 5 11 10 11 6 0 10 -2 10 -4z m3707 -61 c0 -8 -4 -12 -9 -9
-5 3 -6 10 -3 15 9 13 12 11 12 -6z m-3057 -17 c18 -28 19 -39 7 -55 -11 -15
-41 -18 -32 -4 3 5 1 13 -5 16 -8 5 -7 11 1 21 9 11 8 15 -6 20 -13 5 -14 9
-3 15 19 12 22 11 38 -13z m3035 2 c3 -6 -1 -7 -9 -4 -18 7 -21 14 -7 14 6 0
13 -4 16 -10z m-3215 -19 c0 -6 -4 -13 -10 -16 -5 -3 -10 1 -10 9 0 9 5 16 10
16 6 0 10 -4 10 -9z m1240 -61 c13 -9 12 -12 -4 -25 -13 -10 -15 -15 -6 -15 7
0 10 -3 7 -7 -4 -3 -15 1 -25 10 -10 10 -22 14 -27 10 -4 -5 -5 -1 -3 7 3 8
11 14 17 13 6 -2 11 2 11 7 0 13 11 13 30 0z m-1050 -10 c0 -5 -5 -10 -11 -10
-5 0 -7 5 -4 10 3 6 8 10 11 10 2 0 4 -4 4 -10z m2602 -21 c-10 -4 -22 -14
-25 -23 -7 -18 -37 -22 -37 -5 0 5 4 8 8 5 10 -6 42 29 42 45 0 8 5 7 16 -2
14 -12 14 -14 -4 -20z m-2542 1 c0 -5 -2 -10 -4 -10 -3 0 -8 5 -11 10 -3 6 -1
10 4 10 6 0 11 -4 11 -10z m-660 -14 c0 -3 -4 -8 -10 -11 -5 -3 -10 -1 -10 4
0 6 5 11 10 11 6 0 10 -2 10 -4z m542 -18 c-9 -9 -15 -9 -24 1 -11 10 -10 11
5 6 10 -5 17 -2 17 6 0 7 3 9 7 6 4 -4 1 -13 -5 -19z m448 -8 c0 -5 -2 -10 -4
-10 -3 0 -8 5 -11 10 -3 6 -1 10 4 10 6 0 11 -4 11 -10z m550 -54 c0 -3 -4 -8
-10 -11 -5 -3 -10 -1 -10 4 0 6 5 11 10 11 6 0 10 -2 10 -4z m-748 -38 c-8 -8
-9 -4 -5 13 4 13 8 18 11 10 2 -7 -1 -18 -6 -23z m1690 8 c7 4 8 2 4 -5 -9
-13 -26 -5 -25 12 0 9 2 8 6 -1 2 -6 10 -9 15 -6z m-2412 -22 c0 -8 -19 -13
-24 -6 -3 5 1 9 9 9 8 0 15 -2 15 -3z m1747 -19 c-11 -8 -13 -15 -6 -22 6 -6
5 -10 -5 -10 -8 0 -13 4 -11 8 3 3 -3 6 -12 5 -9 0 -18 6 -21 14 -4 13 -3 13
11 2 13 -11 16 -10 22 7 4 13 11 18 22 14 14 -6 14 -7 0 -18z m1894 -22 c-10
-17 -10 -16 -11 3 0 23 13 41 18 25 2 -6 -1 -18 -7 -28z m-2171 -23 c0 -5 -2
-10 -4 -10 -3 0 -8 5 -11 10 -3 6 -1 10 4 10 6 0 11 -4 11 -10z m262 -6 c16
-15 18 -15 24 -1 5 14 9 14 41 1 19 -8 32 -10 28 -5 -3 6 -2 11 4 11 5 0 13
-5 16 -10 4 -7 13 -6 27 1 12 6 18 7 14 1 -3 -5 1 -13 10 -16 9 -4 13 -2 8 5
-4 8 -1 8 12 2 11 -5 41 -8 67 -7 32 2 50 -2 53 -10 3 -7 11 -13 19 -13 8 0
12 3 10 7 -2 3 1 12 6 20 8 11 12 12 15 3 3 -7 12 -9 20 -6 10 4 17 -2 21 -16
3 -11 10 -21 16 -21 6 0 8 3 4 6 -3 4 0 13 8 20 18 19 31 18 15 -1 -9 -11 -10
-15 -1 -15 8 0 10 -8 6 -22 -5 -17 -4 -19 4 -9 10 15 54 24 45 9 -8 -13 31 -9
45 5 11 10 13 10 7 0 -4 -7 -2 -13 4 -13 7 0 6 -5 -2 -14 -7 -8 -15 -12 -18
-11 -3 2 -6 -5 -6 -15 0 -10 6 -16 13 -13 8 3 11 -3 8 -17 -3 -18 -2 -20 10
-10 11 9 13 7 11 -7 -4 -28 -54 -24 -111 8 -39 21 -54 26 -68 18 -10 -6 -24
-8 -32 -5 -7 2 -16 -2 -19 -10 -3 -8 -14 -14 -25 -14 -11 0 -22 -4 -25 -9 -14
-22 -83 -18 -171 11 -99 33 -135 36 -199 14 -24 -8 -54 -12 -66 -9 -17 5 -21
3 -15 -6 6 -10 3 -11 -16 -1 -17 10 -24 10 -27 1 -5 -14 -42 -15 -42 0 0 5 -4
8 -8 5 -13 -8 -12 37 1 53 10 12 9 13 -2 6 -10 -6 -12 -4 -7 4 5 7 14 10 21 7
7 -2 12 2 11 11 0 9 5 18 13 21 8 3 11 0 7 -7 -4 -6 -1 -11 8 -11 26 0 31 2
29 9 -1 4 7 8 18 9 10 1 25 2 33 3 8 1 20 14 26 28 12 25 13 25 21 6 4 -11 8
-14 8 -7 1 18 23 41 40 42 8 0 23 -7 33 -16z m1892 -19 c-7 -16 -24 -21 -24
-6 0 8 7 13 27 20 1 1 0 -6 -3 -14z m-1314 -85 c0 -5 -2 -10 -4 -10 -3 0 -8 5
-11 10 -3 6 -1 10 4 10 6 0 11 -4 11 -10z m40 -30 c0 -11 -4 -20 -10 -20 -5 0
-10 9 -10 20 0 11 5 20 10 20 6 0 10 -9 10 -20z m1220 -10 c-6 -11 -16 -20
-22 -20 -6 0 -3 9 7 20 10 11 20 20 22 20 2 0 -1 -9 -7 -20z m-2123 -14 c0
-11 -9 -13 -35 -7 -2 1 0 6 3 11 9 15 32 12 32 -4z m-1417 -58 c0 -23 -3 -29
-9 -19 -5 7 -7 21 -6 30 5 22 4 21 10 21 3 0 5 -15 5 -32z m3498 -13 c-3 -3
-9 2 -12 12 -6 14 -5 15 5 6 7 -7 10 -15 7 -18z m-3428 -5 c0 -5 -4 -10 -10
-10 -5 0 -10 5 -10 10 0 6 5 10 10 10 6 0 10 -4 10 -10z m-75 -60 c3 -5 2 -10
-4 -10 -5 0 -13 5 -16 10 -3 6 -2 10 4 10 5 0 13 -4 16 -10z m32 -72 c-3 -8
-6 -5 -6 6 -1 11 2 17 5 13 3 -3 4 -12 1 -19z m2045 -45 c2 -22 10 -29 38 -36
19 -4 43 -8 52 -8 10 0 20 -4 23 -10 4 -5 -1 -9 -10 -9 -10 0 -13 -5 -9 -12 6
-10 5 -10 -7 -1 -11 9 -16 7 -26 -13 -9 -20 -9 -24 6 -24 9 0 27 7 39 16 26
18 30 4 5 -19 -25 -21 -99 -40 -157 -38 -29 0 -60 -6 -73 -14 -19 -13 -23 -13
-23 -2 0 10 -14 13 -57 11 -32 -1 -67 -5 -78 -7 -11 -3 -30 2 -42 9 -13 8 -23
12 -23 8 0 -4 -7 -1 -15 6 -9 7 -18 10 -21 7 -8 -8 -64 53 -64 69 0 8 6 14 13
14 12 0 26 9 74 50 15 13 56 12 113 -3 36 -10 50 -10 73 2 21 10 32 10 40 2
13 -13 47 -15 47 -2 0 9 43 29 67 30 6 1 13 -11 15 -26z m42 -2 c3 -5 -1 -12
-10 -15 -22 -9 -24 -8 -24 9 0 16 25 21 34 6z m115 -5 c6 -7 9 -22 5 -32 -3
-11 -8 -26 -10 -34 -4 -12 -6 -13 -14 0 -5 9 -5 19 1 27 7 8 7 18 -1 32 -12
23 1 28 19 7z m-594 -26 c3 -5 1 -10 -4 -10 -6 0 -11 5 -11 10 0 6 2 10 4 10
3 0 8 -4 11 -10z m-19 -491 c3 -6 15 -9 25 -6 11 3 19 1 19 -4 0 -5 11 -9 25
-9 14 0 25 -4 25 -10 0 -6 9 -6 24 0 35 13 86 9 86 -7 0 -7 5 -13 11 -13 5 0
8 4 5 9 -11 16 26 21 145 20 74 0 119 -5 119 -11 0 -6 6 -6 15 2 8 6 20 8 26
4 7 -4 9 -3 5 4 -10 17 12 24 36 10 26 -14 37 -16 89 -20 35 -3 36 -4 22 -25
-13 -19 -12 -22 3 -25 16 -3 16 -4 -1 -18 -15 -12 -17 -12 -10 -1 6 10 4 12
-4 6 -7 -4 -11 -15 -8 -24 2 -11 -1 -18 -9 -18 -8 0 -14 6 -14 14 0 7 -5 13
-11 13 -5 0 -7 -6 -4 -12 4 -7 0 -5 -8 5 -12 15 -19 16 -41 6 -14 -7 -26 -16
-26 -20 0 -5 -8 -13 -18 -18 -16 -9 -18 -6 -17 20 l2 30 -29 -36 c-17 -19 -39
-35 -51 -36 -12 0 -16 -3 -9 -6 17 -7 15 -23 -3 -23 -8 0 -15 6 -15 13 0 8 -3
8 -8 1 -20 -30 -73 -25 -67 7 2 10 0 21 -6 24 -5 4 -9 1 -9 -5 0 -10 -20 -8
-75 7 -17 5 -18 3 -8 -9 11 -12 8 -14 -17 -10 -24 3 -29 1 -25 -11 4 -9 -1
-16 -14 -20 -14 -3 -19 -1 -14 6 4 6 0 8 -10 4 -9 -3 -17 -1 -19 5 -3 8 -11 7
-26 -1 -23 -12 -42 -8 -42 11 0 6 9 8 20 5 10 -3 24 1 30 7 11 14 -25 19 -107
17 -33 -1 -45 4 -57 21 -9 12 -16 18 -16 13 0 -5 -7 0 -15 11 -14 18 -14 18
-15 0 0 -10 8 -25 18 -33 16 -12 15 -13 -8 -11 -20 3 -24 9 -25 36 0 18 -7 37
-14 41 -7 5 -10 14 -7 20 4 6 2 11 -3 11 -6 0 -11 5 -11 10 0 6 9 10 20 10 11
0 20 -4 20 -10 0 -5 5 -10 10 -10 7 0 7 7 -1 21 -10 20 -9 21 10 16 11 -3 24
-1 27 4 7 13 51 11 60 -2z m-152 -61 c-4 -6 -10 -5 -15 3 -14 22 -10 33 6 19
8 -7 12 -17 9 -22z m879 19 c3 -8 -1 -14 -9 -14 -15 0 -18 9 -7 20 9 9 10 9
16 -6z m-17 -65 c-17 -16 -18 -16 -5 5 7 12 15 20 18 17 3 -2 -3 -12 -13 -22z
m-143 -27 c-3 -9 -8 -14 -10 -11 -3 3 -2 9 2 15 9 16 15 13 8 -4z m97 -55 c0
-5 -5 -10 -11 -10 -5 0 -7 5 -4 10 3 6 8 10 11 10 2 0 4 -4 4 -10z m1220 -480
c0 -5 -2 -10 -4 -10 -3 0 -8 5 -11 10 -3 6 -1 10 4 10 6 0 11 -4 11 -10z
m-867 -1544 c4 -10 1 -13 -8 -9 -8 3 -12 9 -9 14 7 12 11 11 17 -5z"/>
<path d="M6240 6030 c-12 -8 -10 -10 8 -10 13 0 20 4 17 10 -7 12 -6 12 -25 0z"/>
<path d="M6639 6023 c-1 -5 -1 -11 0 -15 0 -5 -3 -8 -9 -8 -5 0 -10 -4 -10 -8
0 -4 8 -8 18 -8 14 0 17 6 14 23 -4 23 -11 30 -13 16z"/>
<path d="M6735 5940 c-3 -5 -1 -10 4 -10 6 0 11 5 11 10 0 6 -2 10 -4 10 -3 0
-8 -4 -11 -10z"/>
<path d="M6595 5610 c3 -5 8 -10 11 -10 2 0 4 5 4 10 0 6 -5 10 -11 10 -5 0
-7 -4 -4 -10z"/>
<path d="M6737 5067 c-3 -8 -1 -20 4 -28 6 -10 9 -7 9 14 0 29 -5 35 -13 14z"/>
<path d="M6190 5034 c0 -17 17 -36 24 -26 3 5 -1 15 -9 22 -8 7 -15 9 -15 4z"/>
<path d="M6480 5015 c-7 -9 -8 -15 -2 -15 5 0 12 7 16 15 3 8 4 15 2 15 -2 0
-9 -7 -16 -15z"/>
<path d="M6333 4966 c-13 -6 -23 -14 -23 -17 0 -11 26 -5 42 9 8 6 19 8 23 4
5 -4 5 -1 1 6 -8 14 -13 14 -43 -2z"/>
<path d="M6816 7075 c-4 -14 -3 -32 1 -40 5 -9 9 0 9 25 2 46 -1 50 -10 15z"/>
<path d="M4458 7085 c-6 -6 -1 -85 5 -92 2 -1 7 13 13 32 6 19 7 32 3 29 -4
-2 -9 5 -11 17 -2 11 -6 18 -10 14z"/>
<path d="M7850 7062 c0 -12 4 -22 9 -22 10 0 9 26 -2 36 -4 4 -7 -2 -7 -14z"/>
<path d="M5030 7060 c0 -5 5 -10 11 -10 5 0 7 5 4 10 -3 6 -8 10 -11 10 -2 0
-4 -4 -4 -10z"/>
<path d="M6900 7055 c0 -8 5 -15 10 -15 6 0 10 7 10 15 0 8 -4 15 -10 15 -5 0
-10 -7 -10 -15z"/>
<path d="M4293 7039 c-2 -23 3 -25 10 -4 4 8 3 16 -1 19 -4 3 -9 -4 -9 -15z"/>
<path d="M8290 7005 c-10 -12 -10 -15 3 -15 19 0 31 16 18 24 -5 3 -14 -1 -21
-9z"/>
<path d="M8330 6990 c0 -5 -7 -10 -15 -10 -14 0 -14 -3 0 -24 12 -18 13 -25 4
-28 -7 -2 -14 -18 -15 -35 -2 -25 1 -30 13 -26 22 9 34 49 23 78 -5 14 -7 32
-4 40 4 8 3 15 0 15 -3 0 -6 -4 -6 -10z"/>
<path d="M4272 6970 c0 -14 2 -19 5 -12 2 6 2 18 0 25 -3 6 -5 1 -5 -13z"/>
<path d="M7990 6953 c0 -11 -5 -24 -12 -31 -17 -17 2 -31 35 -25 15 3 27 12
27 19 0 8 -6 13 -12 12 -7 -2 -13 6 -13 16 0 11 -6 21 -13 24 -7 2 -12 -5 -12
-15z"/>
<path d="M5995 6950 c3 -5 8 -10 11 -10 2 0 4 5 4 10 0 6 -5 10 -11 10 -5 0
-7 -4 -4 -10z"/>
<path d="M8173 6933 c-18 -7 -16 -30 3 -37 24 -9 29 -7 16 6 -15 15 -16 31 0
22 7 -4 8 -3 4 4 -4 7 -8 12 -9 11 -1 0 -8 -3 -14 -6z"/>
<path d="M4338 6893 c2 -12 7 -23 11 -23 3 0 6 11 6 23 0 13 -5 24 -11 24 -6
0 -9 -11 -6 -24z"/>
<path d="M4516 6893 c-6 -14 -5 -15 5 -6 7 7 10 15 7 18 -3 3 -9 -2 -12 -12z"/>
<path d="M8151 6871 c-9 -16 -8 -18 8 -14 12 3 17 11 14 19 -7 18 -10 18 -22
-5z"/>
<path d="M4524 6868 c-5 -8 -2 -9 9 -5 12 4 18 0 23 -17 3 -12 11 -23 18 -23
10 0 10 6 -1 29 -15 29 -37 36 -49 16z"/>
<path d="M4342 6837 c-12 -13 -22 -30 -22 -38 0 -11 2 -11 9 -1 4 7 14 12 20
10 8 -2 14 9 16 25 4 33 4 33 -23 4z"/>
<path d="M8252 6848 c-8 -8 -8 -17 0 -31 8 -17 8 -19 -5 -14 -11 4 -14 2 -11
-7 3 -8 1 -17 -5 -21 -6 -3 -11 2 -11 12 0 15 -2 16 -10 3 -15 -24 -12 -30 16
-30 21 0 24 -3 15 -14 -9 -11 -6 -12 13 -9 22 5 24 8 15 31 -9 23 -8 24 7 11
16 -13 16 -12 7 6 -6 11 -8 26 -6 33 3 6 -1 12 -9 12 -11 0 -11 2 1 9 7 5 9
11 4 14 -6 4 -15 1 -21 -5z"/>
<path d="M8180 6811 c0 -5 5 -13 10 -16 6 -3 10 -2 10 4 0 5 -4 13 -10 16 -5
3 -10 2 -10 -4z"/>
<path d="M4596 6795 c-13 -10 -16 -20 -11 -32 5 -12 9 -14 12 -5 3 6 10 9 15
6 7 -5 8 -2 3 6 -4 7 -2 16 5 20 7 4 8 10 3 13 -4 3 -17 -1 -27 -8z"/>
<path d="M4340 6781 c0 -6 4 -13 10 -16 6 -3 7 1 4 9 -7 18 -14 21 -14 7z"/>
<path d="M4650 6760 c0 -5 5 -10 11 -10 5 0 7 5 4 10 -3 6 -8 10 -11 10 -2 0
-4 -4 -4 -10z"/>
<path d="M6795 6737 c-4 -10 -5 -21 -1 -24 10 -10 18 4 13 24 -4 17 -4 17 -12
0z"/>
<path d="M4600 6729 c0 -5 5 -7 10 -4 6 3 10 8 10 11 0 2 -4 4 -10 4 -5 0 -10
-5 -10 -11z"/>
<path d="M8115 6730 c3 -5 8 -10 11 -10 2 0 4 5 4 10 0 6 -5 10 -11 10 -5 0
-7 -4 -4 -10z"/>
<path d="M8028 6722 c-22 -4 -23 -18 -3 -26 9 -3 18 1 22 10 7 18 3 21 -19 16z"/>
<path d="M8286 6721 c-4 -5 -2 -12 3 -15 5 -4 12 -2 15 3 4 5 2 12 -3 15 -5 4
-12 2 -15 -3z"/>
<path d="M7968 6703 c7 -3 16 -2 19 1 4 3 -2 6 -13 5 -11 0 -14 -3 -6 -6z"/>
<path d="M8070 6685 c7 -9 8 -15 2 -15 -19 0 -23 -33 -6 -49 15 -15 16 -14 9
8 -5 16 -4 21 4 17 7 -5 8 -1 4 10 -4 12 -3 15 5 10 17 -10 15 2 -2 20 -19 19
-32 18 -16 -1z"/>
<path d="M4640 6679 c0 -5 5 -7 10 -4 6 3 10 8 10 11 0 2 -4 4 -10 4 -5 0 -10
-5 -10 -11z"/>
<path d="M7770 6630 c0 -19 3 -21 12 -12 9 9 9 15 0 24 -9 9 -12 7 -12 -12z"/>
<path d="M7427 6634 c-3 -3 -3 -12 0 -20 4 -10 9 -11 23 -1 14 8 16 13 7 19
-15 9 -22 10 -30 2z"/>
<path d="M8137 6623 c-10 -9 -9 -23 1 -23 5 0 9 7 9 15 0 17 -1 18 -10 8z"/>
<path d="M7785 6600 c-3 -5 -1 -10 4 -10 6 0 11 5 11 10 0 6 -2 10 -4 10 -3 0
-8 -4 -11 -10z"/>
<path d="M8280 6601 c0 -9 30 -24 36 -18 2 1 -6 8 -16 15 -11 7 -20 8 -20 3z"/>
<path d="M4290 6590 c0 -5 5 -10 10 -10 6 0 10 5 10 10 0 6 -4 10 -10 10 -5 0
-10 -4 -10 -10z"/>
<path d="M4781 6571 c-12 -22 -5 -27 19 -11 11 7 12 12 3 21 -8 8 -14 6 -22
-10z"/>
<path d="M7627 6575 c-4 -8 -2 -17 3 -20 6 -4 10 0 10 9 0 8 6 17 13 19 7 4 6
6 -4 6 -9 1 -19 -6 -22 -14z"/>
<path d="M4814 6559 c-3 -6 -1 -16 5 -22 8 -8 11 -5 11 11 0 24 -5 28 -16 11z"/>
<path d="M7350 6560 c0 -5 5 -10 10 -10 6 0 10 5 10 10 0 6 -4 10 -10 10 -5 0
-10 -4 -10 -10z"/>
<path d="M7772 6550 c0 -14 2 -19 5 -12 2 6 2 18 0 25 -3 6 -5 1 -5 -13z"/>
<path d="M4742 6536 c4 -25 24 -32 32 -11 4 10 2 14 -5 9 -6 -4 -15 0 -21 7
-7 11 -8 10 -6 -5z"/>
<path d="M4873 6543 c-18 -7 -16 -33 3 -33 8 0 13 4 10 9 -3 5 0 8 7 7 6 0 13
4 15 9 3 11 -17 16 -35 8z"/>
<path d="M4790 6524 c0 -8 5 -12 10 -9 6 4 8 11 5 16 -9 14 -15 11 -15 -7z"/>
<path d="M7744 6531 c3 -4 -5 -13 -19 -19 -17 -8 -22 -17 -18 -31 3 -13 -2
-24 -16 -33 -26 -16 -26 -24 -2 -38 17 -8 23 -3 50 39 28 47 33 91 9 91 -5 0
-7 -4 -4 -9z"/>
<path d="M7640 6519 c0 -5 5 -7 10 -4 6 3 10 8 10 11 0 2 -4 4 -10 4 -5 0 -10
-5 -10 -11z"/>
<path d="M7570 6490 c-8 -5 -12 -11 -9 -14 2 -3 11 -1 19 4 8 5 12 11 9 14 -2
3 -11 1 -19 -4z"/>
<path d="M4796 6467 c-9 -35 -7 -40 9 -23 17 16 19 32 6 40 -5 3 -11 -4 -15
-17z"/>
<path d="M7600 6470 c0 -5 5 -10 10 -10 6 0 10 5 10 10 0 6 -4 10 -10 10 -5 0
-10 -4 -10 -10z"/>
<path d="M4945 6450 c-3 -5 -1 -10 4 -10 6 0 11 5 11 10 0 6 -2 10 -4 10 -3 0
-8 -4 -11 -10z"/>
<path d="M4993 6443 c9 -2 17 -8 17 -13 0 -5 8 -6 17 -3 15 6 15 7 -3 14 -10
4 -26 7 -34 7 -10 0 -9 -2 3 -5z"/>
<path d="M7036 6435 c4 -8 8 -15 10 -15 2 0 4 7 4 15 0 8 -4 15 -10 15 -5 0
-7 -7 -4 -15z"/>
<path d="M7590 6430 c0 -5 5 -10 10 -10 6 0 10 5 10 10 0 6 -4 10 -10 10 -5 0
-10 -4 -10 -10z"/>
<path d="M7735 6410 c3 -5 8 -10 11 -10 2 0 4 5 4 10 0 6 -5 10 -11 10 -5 0
-7 -4 -4 -10z"/>
<path d="M5476 6314 c-5 -13 -2 -15 14 -11 17 4 20 2 15 -14 -7 -22 0 -24 19
-7 11 11 10 16 -7 30 -25 22 -33 22 -41 2z"/>
<path d="M5305 6270 c-3 -5 -2 -10 4 -10 5 0 13 5 16 10 3 6 2 10 -4 10 -5 0
-13 -4 -16 -10z"/>
<path d="M5380 6269 c0 -5 5 -7 10 -4 6 3 10 8 10 11 0 2 -4 4 -10 4 -5 0 -10
-5 -10 -11z"/>
<path d="M5910 6255 c-7 -9 -8 -15 -2 -15 5 0 12 7 16 15 3 8 4 15 2 15 -2 0
-9 -7 -16 -15z"/>
<path d="M8165 6260 c-3 -5 -1 -10 4 -10 6 0 11 5 11 10 0 6 -2 10 -4 10 -3 0
-8 -4 -11 -10z"/>
<path d="M7396 6238 c3 -4 9 -8 15 -8 5 0 9 4 9 8 0 5 -7 9 -15 9 -8 0 -12 -4
-9 -9z"/>
<path d="M8255 6240 c-3 -5 -1 -10 4 -10 6 0 11 5 11 10 0 6 -2 10 -4 10 -3 0
-8 -4 -11 -10z"/>
<path d="M8425 6242 c-3 -3 -5 -12 -5 -19 0 -20 33 -12 35 8 3 15 -19 22 -30
11z"/>
<path d="M8185 6230 c-3 -5 -2 -10 4 -10 5 0 12 -8 14 -17 4 -14 5 -13 6 4 1
24 -14 39 -24 23z"/>
<path d="M7365 6220 c-3 -5 -2 -10 4 -10 5 0 13 5 16 10 3 6 2 10 -4 10 -5 0
-13 -4 -16 -10z"/>
<path d="M4235 6201 c-7 -23 -14 -34 -43 -66 -19 -21 -5 -19 34 6 35 21 38 30
25 64 -8 19 -8 19 -16 -4z"/>
<path d="M8234 6196 c-13 -10 -16 -18 -9 -25 7 -7 14 -2 22 15 13 28 13 28
-13 10z"/>
<path d="M7031 6184 c0 -11 3 -14 6 -6 3 7 2 16 -1 19 -3 4 -6 -2 -5 -13z"/>
<path d="M4420 6170 c0 -5 7 -10 16 -10 8 0 12 5 9 10 -3 6 -10 10 -16 10 -5
0 -9 -4 -9 -10z"/>
<path d="M7010 6149 c0 -11 4 -18 10 -14 5 3 7 12 3 20 -7 21 -13 19 -13 -6z"/>
<path d="M7242 6144 c-10 -12 -10 -14 2 -14 17 0 30 16 19 23 -5 3 -14 -1 -21
-9z"/>
<path d="M4460 6039 c0 -5 5 -7 10 -4 6 3 10 8 10 11 0 2 -4 4 -10 4 -5 0 -10
-5 -10 -11z"/>
<path d="M8176 5973 c1 -2 -2 -18 -6 -34 -11 -36 -3 -38 11 -2 5 15 6 29 1 33
-5 4 -8 5 -6 3z"/>
<path d="M8095 5840 c-3 -5 -2 -10 4 -10 5 0 13 5 16 10 3 6 2 10 -4 10 -5 0
-13 -4 -16 -10z"/>
<path d="M4476 5793 c-6 -14 -5 -15 5 -6 7 7 10 15 7 18 -3 3 -9 -2 -12 -12z"/>
<path d="M4483 5693 c-18 -7 -16 -33 1 -33 9 0 14 9 13 20 -1 11 -1 20 -2 19
0 0 -6 -3 -12 -6z"/>
<path d="M8070 5660 c0 -6 7 -10 15 -10 8 0 15 2 15 4 0 2 -7 6 -15 10 -8 3
-15 1 -15 -4z"/>
<path d="M4490 5550 c0 -5 5 -10 11 -10 5 0 7 5 4 10 -3 6 -8 10 -11 10 -2 0
-4 -4 -4 -10z"/>
<path d="M8030 5411 c0 -5 7 -14 15 -21 12 -10 15 -10 15 3 0 8 -7 17 -15 21
-8 3 -15 2 -15 -3z"/>
<path d="M8050 4410 c-9 -6 -10 -10 -3 -10 6 0 15 5 18 10 8 12 4 12 -15 0z"/>
<path d="M8030 4150 c0 -5 5 -10 11 -10 5 0 7 5 4 10 -3 6 -8 10 -11 10 -2 0
-4 -4 -4 -10z"/>
<path d="M8075 4001 c-3 -5 -2 -12 3 -15 5 -3 9 1 9 9 0 17 -3 19 -12 6z"/>
<path d="M8045 3870 c-4 -6 -11 -8 -16 -5 -5 3 -6 -1 -3 -9 8 -20 18 -20 33
-2 8 9 8 16 2 20 -5 4 -12 2 -16 -4z"/>
<path d="M8003 3786 c0 -18 3 -24 9 -18 7 7 7 16 0 28 -8 14 -9 13 -9 -10z"/>
<path d="M4180 3564 c0 -13 18 -39 24 -34 2 3 -2 14 -10 24 -8 11 -14 16 -14
10z"/>
<path d="M4230 3476 c0 -2 8 -10 18 -17 15 -13 16 -12 3 4 -13 16 -21 21 -21
13z"/>
<path d="M7990 3466 c0 -9 5 -16 10 -16 6 0 10 4 10 9 0 6 -4 13 -10 16 -5 3
-10 -1 -10 -9z"/>
<path d="M4266 3428 c33 -54 100 -148 106 -148 9 0 -90 147 -104 157 -7 3 -7
0 -2 -9z"/>
<path d="M8812 3328 c-52 -10 -53 -10 -47 -39 7 -31 -12 -66 -68 -126 -26 -27
-29 -36 -23 -68 10 -50 -10 -76 -85 -114 -69 -34 -145 -42 -155 -16 -4 8 -17
13 -34 12 -15 -1 -26 -5 -23 -10 2 -4 -8 -12 -23 -17 -20 -8 -29 -8 -34 1 -5
7 -20 4 -50 -13 -23 -12 -60 -32 -81 -43 -21 -11 -49 -31 -62 -45 -24 -27 -87
-118 -87 -126 0 -17 -108 -152 -191 -238 -123 -129 -267 -307 -261 -325 3 -8
0 -11 -7 -7 -6 4 -11 3 -11 -3 0 -5 8 -12 18 -15 9 -2 4 -4 -12 -3 -16 1 -31
-3 -33 -9 -4 -13 55 -44 83 -44 25 0 10 11 -28 20 -31 8 -31 8 14 9 35 1 46
-2 42 -12 -2 -7 4 -13 16 -14 11 -1 20 3 20 8 0 5 9 20 20 32 18 19 22 20 31
7 9 -13 10 -12 5 3 -3 10 0 17 7 17 9 0 8 3 -1 9 -11 6 -9 9 6 13 15 4 19 2
15 -9 -5 -13 -2 -13 23 0 20 11 44 44 78 109 28 51 56 99 63 106 7 7 16 24 19
38 3 13 10 21 15 18 5 -3 6 2 3 10 -3 9 -1 16 5 16 6 0 16 11 21 25 5 14 14
25 20 25 6 0 8 5 4 12 -4 6 0 16 8 22 8 6 17 19 21 30 4 10 13 16 22 12 8 -3
17 -1 20 4 4 6 -4 10 -16 10 -18 0 -19 2 -9 15 7 8 19 15 27 15 8 0 11 5 8 10
-4 6 -12 8 -18 4 -7 -3 -3 2 7 10 11 9 34 16 50 17 17 0 25 3 19 6 -20 8 -15
21 10 26 13 3 7 5 -16 6 -45 1 -41 21 5 21 26 0 29 2 18 15 -11 13 -8 15 15
15 24 0 26 2 14 17 -13 15 -11 16 16 9 28 -7 29 -6 10 7 -11 8 -32 17 -45 20
-19 3 -17 4 10 5 28 1 45 -7 80 -39 40 -36 41 -39 13 -25 -23 12 -32 13 -36 3
-5 -16 2 -37 14 -37 4 0 6 7 2 16 -5 14 -3 14 13 5 10 -5 26 -15 34 -22 12 -9
11 -10 -8 -6 -27 6 -19 -11 12 -23 20 -8 20 -9 -4 -10 -20 0 -22 -2 -10 -10
20 -13 53 -13 45 0 -4 6 7 8 27 6 19 -2 32 -9 30 -16 -1 -6 2 -9 7 -6 5 3 11
0 14 -8 3 -7 17 -16 31 -18 29 -6 36 8 9 15 -10 3 3 5 29 6 38 1 46 4 42 16
-5 11 2 15 27 15 23 0 30 3 20 9 -7 5 -23 6 -35 3 -15 -3 -18 -2 -11 7 7 7 75
13 180 17 145 5 185 7 248 13 5 1 5 6 1 12 -3 6 0 16 7 21 10 7 6 8 -14 5 -15
-2 -30 0 -33 4 -3 5 5 9 18 9 18 0 24 6 26 24 1 13 -5 27 -13 30 -8 3 -15 10
-15 16 0 5 -13 32 -30 58 -16 27 -30 57 -30 66 0 9 -4 16 -8 16 -11 0 -82 118
-82 136 0 7 -6 17 -13 21 -8 4 -17 17 -21 28 -6 16 -2 15 21 -7 15 -15 42 -33
58 -40 32 -14 96 -79 205 -212 82 -100 114 -135 104 -117 -10 19 -11 72 -2 78
5 2 8 -13 9 -34 l1 -38 9 35 c5 19 6 45 4 58 -3 12 -1 22 4 22 5 0 11 -11 13
-25 2 -18 7 -22 17 -16 12 8 12 11 -1 25 -9 8 -14 25 -11 38 3 17 -4 28 -26
43 -34 22 -41 44 -14 41 14 -1 17 6 14 34 -4 42 -19 73 -31 65 -10 -6 -25 41
-22 66 2 9 -4 19 -13 22 -8 4 -15 13 -15 21 0 19 -52 62 -105 86 -47 21 -89
23 -173 8z m-497 -468 c-3 -5 -12 -10 -18 -10 -7 0 -6 4 3 10 19 12 23 12 15
0z m-32 -45 c15 -13 27 -27 27 -30 0 -13 -21 -3 -52 25 -39 36 -16 41 25 5z
m227 -115 c0 -5 -8 -10 -17 -10 -15 0 -16 2 -3 10 19 12 20 12 20 0z m20 -31
c0 -5 -12 -8 -27 -5 -16 2 -38 5 -50 5 -13 1 -23 4 -23 9 0 4 22 5 50 4 27 -2
50 -8 50 -13z m-837 -546 c-7 -2 -21 -2 -30 0 -10 3 -4 5 12 5 17 0 24 -2 18
-5z"/>
<path d="M6105 3101 c-22 -10 -46 -26 -54 -35 -7 -9 -19 -16 -26 -16 -39 0
-273 -209 -425 -380 -30 -34 -85 -94 -122 -134 -38 -39 -68 -73 -68 -76 0 -3
-19 -26 -43 -51 -24 -24 -48 -52 -53 -61 -5 -9 -26 -35 -48 -58 -30 -33 -36
-44 -25 -51 11 -7 9 -9 -8 -9 -12 0 -25 -5 -28 -10 -4 -7 3 -9 22 -6 15 2 36
5 45 5 11 1 15 6 12 16 -5 12 2 15 29 15 20 0 38 4 41 9 4 5 -3 7 -14 4 -11
-3 -20 0 -20 6 0 10 15 13 78 14 12 1 21 6 19 11 -2 6 5 16 17 23 19 11 17 12
-17 11 -61 -2 -52 9 15 17 35 5 66 9 71 10 4 2 21 3 39 4 41 1 28 14 -14 13
-26 0 -29 2 -13 8 21 8 98 21 127 21 10 0 20 5 23 10 4 5 11 6 17 3 7 -4 8 -2
4 5 -4 6 -12 9 -17 6 -5 -4 -9 -2 -9 4 0 10 61 31 93 31 9 0 17 4 17 9 0 6
-10 7 -22 4 -13 -3 -33 -5 -45 -6 -13 -1 -23 -4 -23 -7 0 -4 -6 -7 -12 -8 -7
0 -24 -4 -38 -8 -19 -5 -22 -4 -14 5 6 6 19 13 30 16 10 2 42 10 69 18 57 15
248 20 315 8 l45 -8 -42 -2 c-72 -2 -48 -16 27 -16 46 0 73 -4 78 -12 5 -7 20
-14 35 -15 15 -1 27 -6 27 -10 0 -5 8 -12 17 -15 10 -4 27 -17 39 -30 12 -13
26 -23 33 -23 6 0 24 -13 39 -30 16 -16 35 -30 41 -30 7 0 9 -4 6 -10 -3 -5 1
-10 10 -10 8 0 18 -7 21 -15 4 -8 16 -15 28 -15 17 0 18 -2 6 -10 -12 -8 -11
-10 8 -10 12 0 25 -7 28 -15 4 -8 12 -15 20 -15 8 0 14 -7 14 -15 0 -8 9 -15
20 -15 11 0 20 -7 20 -15 0 -8 9 -15 21 -15 11 0 18 -4 14 -9 -3 -5 4 -12 15
-16 11 -4 18 -10 15 -15 -3 -4 5 -10 18 -14 18 -5 20 -8 7 -16 -12 -7 -8 -10
16 -10 19 0 34 -6 38 -15 3 -8 15 -15 26 -15 11 0 19 -5 17 -12 -1 -6 9 -15
23 -19 14 -4 19 -7 13 -8 -7 -1 -13 -6 -13 -12 0 -6 9 -9 20 -6 13 3 20 0 20
-9 0 -8 9 -14 20 -14 11 0 20 -7 20 -15 0 -9 9 -15 24 -15 26 0 44 -16 25 -22
-22 -7 3 -38 31 -38 31 0 48 -15 28 -23 -7 -3 6 -6 30 -6 38 -1 57 -14 31 -23
-12 -4 -1 -38 12 -38 4 0 6 7 3 15 -4 9 0 15 10 15 9 0 13 -6 10 -13 -4 -11 5
-13 37 -12 39 2 41 1 23 -12 -17 -14 -15 -15 23 -11 23 2 39 0 37 -4 -3 -5
-12 -8 -20 -8 -9 0 -14 -7 -12 -17 4 -22 28 -29 28 -9 0 12 9 16 38 15 23 -1
28 -3 15 -6 -13 -2 -23 -8 -23 -13 0 -5 9 -7 20 -5 12 2 46 5 78 6 31 1 65 4
75 7 21 5 23 22 2 22 -8 0 -15 5 -15 10 0 6 19 11 43 11 23 1 35 3 27 5 -9 3
-21 18 -27 34 -7 19 -18 30 -31 30 -11 0 -30 8 -43 18 -35 26 -71 43 -96 45
-12 0 -20 4 -17 8 2 4 -14 16 -36 28 -22 11 -40 17 -40 13 0 -4 -5 1 -11 11
-5 9 -19 17 -29 17 -11 0 -20 3 -20 8 0 4 -17 16 -37 27 -21 11 -44 26 -51 32
-7 7 -19 13 -26 13 -7 0 -21 9 -31 20 -10 11 -23 20 -29 20 -6 0 -37 17 -68
38 -83 54 -146 93 -203 125 -27 16 -59 36 -70 46 -11 9 -36 24 -56 34 -20 10
-47 28 -60 40 -13 12 -41 35 -62 51 -57 42 -168 153 -165 165 2 5 -6 17 -17
26 l-20 17 20 -6 c20 -6 20 -6 1 9 -11 8 -25 15 -32 15 -7 0 -16 5 -20 12 -4
6 -3 8 3 5 5 -3 24 -9 42 -12 26 -4 31 -2 29 12 -2 10 6 20 22 25 19 6 16 6
-11 3 -38 -6 -72 2 -64 14 6 11 98 12 115 1 10 -6 11 -10 3 -10 -7 0 -13 -5
-13 -11 0 -5 4 -8 9 -4 6 3 15 -4 21 -15 9 -17 19 -20 58 -17 37 3 46 7 44 20
-2 14 5 17 35 16 30 -2 32 -3 11 -6 -16 -2 -28 -8 -28 -13 0 -4 8 -7 18 -5 9
2 35 4 57 4 30 1 36 4 27 13 -14 14 -16 28 -3 28 5 0 11 -9 14 -20 3 -14 14
-20 32 -20 15 0 24 4 20 10 -9 15 4 12 21 -4 11 -11 11 -16 1 -19 -6 -3 11 -5
38 -5 34 1 40 2 17 5 -18 2 -30 9 -27 14 4 5 -1 9 -9 9 -8 0 -18 9 -21 20 -7
23 -25 26 -44 8 -11 -11 -12 -9 -6 10 6 21 5 23 -13 13 -14 -7 -24 -6 -39 4
-20 14 -21 13 -16 -8 4 -17 0 -14 -16 11 -12 18 -21 48 -21 67 0 19 -5 35 -11
35 -7 0 -8 -14 -4 -40 4 -26 3 -40 -4 -40 -6 0 -11 18 -11 39 0 22 -5 43 -11
47 -11 7 -7 -38 7 -87 2 -9 -2 -19 -11 -23 -10 -3 -15 -1 -13 7 2 7 -7 22 -20
35 -14 14 -22 34 -22 57 0 36 15 48 23 18 4 -14 5 -13 6 3 0 12 -6 25 -15 28
-20 8 -36 -2 -28 -16 4 -7 2 -8 -5 -4 -6 4 -10 15 -9 24 2 9 -2 16 -9 15 -6
-1 -14 4 -16 12 -4 9 11 6 46 -11 29 -14 60 -28 70 -31 9 -3 17 -9 17 -13 0
-8 37 -22 87 -33 18 -4 22 -1 20 14 -2 10 -7 22 -12 26 -4 5 -5 2 -1 -4 4 -7
4 -13 -1 -13 -13 0 -30 14 -35 29 -2 8 -14 15 -26 16 -11 1 -19 -2 -16 -7 13
-21 -18 -5 -32 17 -16 24 -55 42 -81 37 -6 -1 -14 2 -18 8 -3 5 -15 10 -26 10
-10 0 -19 4 -19 9 0 5 -8 12 -18 16 -19 5 -42 44 -42 70 0 8 8 15 19 15 10 0
24 7 31 15 11 13 8 15 -14 15 -14 0 -26 5 -26 10 0 16 -71 10 -115 -9z m280
-181 c3 -6 -1 -7 -9 -4 -18 7 -21 14 -7 14 6 0 13 -4 16 -10z m-75 -60 c0 -11
7 -36 14 -55 8 -19 11 -35 7 -35 -5 0 -16 22 -25 49 -19 58 -19 61 -6 61 6 0
10 -9 10 -20z m-143 -27 c-3 -10 -5 -4 -5 12 0 17 2 24 5 18 2 -7 2 -21 0 -30z
m133 -29 c0 -8 -4 -14 -10 -14 -5 0 -10 9 -10 21 0 11 5 17 10 14 6 -3 10 -13
10 -21z m32 -66 c-7 -7 -12 -8 -12 -2 0 14 12 26 19 19 2 -3 -1 -11 -7 -17z
m-98 4 c3 -5 -17 -10 -44 -11 -28 0 -50 3 -50 7 0 12 87 15 94 4z m62 -19
c-10 -10 -19 5 -10 18 6 11 8 11 12 0 2 -7 1 -15 -2 -18z m102 -19 c-11 -10
-98 -14 -98 -4 0 5 21 10 48 12 50 3 59 2 50 -8z m-33 -34 c-3 -5 -17 -10 -31
-10 -13 0 -24 5 -24 10 0 6 14 10 31 10 17 0 28 -4 24 -10z m-625 -160 c0 -5
-12 -10 -27 -9 -25 0 -26 1 -8 9 27 12 35 12 35 0z m107 4 c-3 -3 -12 -4 -19
-1 -8 3 -5 6 6 6 11 1 17 -2 13 -5z m-237 -93 c0 -13 -39 -21 -47 -9 -3 6 -2
8 3 5 6 -3 16 -2 24 4 19 11 20 11 20 0z m-65 -11 c-3 -5 -12 -10 -18 -10 -7
0 -6 4 3 10 19 12 23 12 15 0z m-55 -40 c0 -5 -9 -10 -20 -10 -11 0 -20 5 -20
10 0 6 9 10 20 10 11 0 20 -4 20 -10z m-100 -64 c0 -2 -9 -6 -20 -9 -11 -3
-20 -1 -20 4 0 5 9 9 20 9 11 0 20 -2 20 -4z m1685 -376 c-3 -5 -14 -10 -23
-9 -14 0 -13 2 3 9 27 11 27 11 20 0z m135 -80 c-19 -12 -40 -13 -40 -1 0 9
40 20 50 13 2 -2 -2 -7 -10 -12z m30 -54 c0 -2 -7 -7 -16 -10 -8 -3 -12 -2 -9
4 6 10 25 14 25 6z m150 -15 c0 -10 -70 -21 -85 -13 -5 4 1 9 15 13 37 10 70
10 70 0z"/>
<path d="M6300 3071 c0 -5 9 -11 21 -14 16 -4 18 -3 8 9 -13 16 -29 19 -29 5z"/>
<path d="M6390 3040 c0 -5 10 -10 23 -10 18 0 19 2 7 10 -19 13 -30 13 -30 0z"/>
<path d="M9186 2996 c3 -9 11 -16 16 -16 13 0 5 23 -10 28 -7 2 -10 -2 -6 -12z"/>
<path d="M7840 2915 c0 -8 2 -15 4 -15 2 0 6 7 10 15 3 8 1 15 -4 15 -6 0 -10
-7 -10 -15z"/>
<path d="M7097 2873 c-11 -10 -8 -20 6 -20 8 0 14 6 14 14 0 14 -10 17 -20 6z"/>
<path d="M7130 2869 c0 -5 5 -7 10 -4 6 3 10 8 10 11 0 2 -4 4 -10 4 -5 0 -10
-5 -10 -11z"/>
<path d="M6550 2855 c0 -8 7 -15 16 -15 14 0 14 3 4 15 -7 8 -14 15 -16 15 -2
0 -4 -7 -4 -15z"/>
<path d="M6660 2845 c0 -8 4 -17 10 -20 6 -4 7 1 3 11 -5 14 -3 15 15 5 17 -9
21 -9 17 2 -7 17 -45 19 -45 2z"/>
<path d="M6613 2825 c-3 -9 -3 -19 1 -22 3 -4 6 1 6 10 0 8 6 18 13 20 9 4 9
6 -1 6 -7 1 -15 -6 -19 -14z"/>
<path d="M6370 2815 c0 -8 4 -15 10 -15 5 0 7 7 4 15 -4 8 -8 15 -10 15 -2 0
-4 -7 -4 -15z"/>
<path d="M6468 2790 c2 -16 6 -30 8 -30 2 0 4 14 4 30 0 17 -4 30 -8 30 -5 0
-7 -13 -4 -30z"/>
<path d="M6493 2807 c4 -10 7 -24 7 -31 0 -7 7 -21 16 -32 15 -18 15 -18 9 4
-4 12 -3 21 2 20 9 -3 13 5 13 27 0 8 -5 15 -11 15 -5 0 -7 -6 -3 -12 4 -7 -3
-4 -16 7 -21 18 -23 18 -17 2z"/>
<path d="M6907 2791 c-3 -12 -1 -21 3 -21 15 0 23 21 12 32 -6 6 -11 2 -15
-11z"/>
<path d="M6798 2783 c7 -3 16 -2 19 1 4 3 -2 6 -13 5 -11 0 -14 -3 -6 -6z"/>
<path d="M9180 2781 c0 -5 7 -12 16 -15 14 -5 15 -4 4 9 -14 17 -20 19 -20 6z"/>
<path d="M4740 2736 c0 -2 7 -9 15 -16 13 -11 14 -10 9 4 -5 14 -24 23 -24 12z"/>
<path d="M6705 2712 c6 -23 5 -24 -11 -11 -11 9 -15 9 -10 2 4 -8 2 -13 -8
-13 -23 0 -27 -16 -4 -17 12 -1 24 -7 28 -14 6 -8 9 -8 14 0 4 6 17 11 29 12
l22 0 -22 11 c-25 12 -32 34 -8 24 9 -3 15 0 15 8 0 8 -12 16 -26 19 -23 4
-25 2 -19 -21z"/>
<path d="M6810 2710 c0 -11 2 -20 4 -20 2 0 6 9 9 20 3 11 1 20 -4 20 -5 0 -9
-9 -9 -20z"/>
<path d="M6620 2710 c0 -5 7 -10 16 -10 8 0 12 5 9 10 -3 6 -10 10 -16 10 -5
0 -9 -4 -9 -10z"/>
<path d="M6835 2700 c3 -5 8 -10 11 -10 2 0 4 5 4 10 0 6 -5 10 -11 10 -5 0
-7 -4 -4 -10z"/>
<path d="M6845 2673 c-18 -14 -18 -15 -2 -9 10 3 23 6 28 6 5 0 9 5 9 10 0 14
-12 12 -35 -7z"/>
<path d="M6495 2649 c-30 -7 -30 -7 7 -8 20 0 39 3 42 7 6 10 -8 10 -49 1z"/>
<path d="M8595 2650 c3 -5 8 -10 11 -10 2 0 4 5 4 10 0 6 -5 10 -11 10 -5 0
-7 -4 -4 -10z"/>
<path d="M8312 2633 c5 -24 25 -27 31 -3 4 15 0 20 -15 20 -13 0 -18 -6 -16
-17z"/>
<path d="M6680 2630 c-14 -4 -19 -8 -12 -9 7 -1 10 -5 7 -11 -3 -5 -4 -10 -1
-10 2 0 12 -3 21 -7 14 -5 16 -2 11 15 -6 19 -2 21 36 25 l43 4 -40 0 c-22 1
-51 -3 -65 -7z"/>
<path d="M6836 2625 c-4 -10 1 -15 14 -15 11 0 20 7 20 15 0 8 -6 15 -14 15
-8 0 -16 -7 -20 -15z"/>
<path d="M6628 2623 c7 -3 16 -2 19 1 4 3 -2 6 -13 5 -11 0 -14 -3 -6 -6z"/>
<path d="M8508 2623 c6 -2 18 -2 25 0 6 3 1 5 -13 5 -14 0 -19 -2 -12 -5z"/>
<path d="M6507 2613 c-8 -13 2 -43 14 -43 10 0 10 8 0 34 -5 12 -10 16 -14 9z"/>
<path d="M6538 2613 c7 -3 16 -2 19 1 4 3 -2 6 -13 5 -11 0 -14 -3 -6 -6z"/>
<path d="M5797 2473 c12 -2 27 -11 33 -19 17 -20 26 -18 26 6 0 17 -6 20 -41
19 -22 -1 -30 -4 -18 -6z"/>
<path d="M5180 2190 c-12 -8 -10 -9 7 -7 12 2 26 6 29 10 11 11 -19 8 -36 -3z"/>
<path d="M5140 2160 c-13 -8 -12 -10 3 -10 9 0 17 5 17 10 0 12 -1 12 -20 0z"/>
<path d="M6905 2130 c3 -5 8 -10 11 -10 2 0 4 5 4 10 0 6 -5 10 -11 10 -5 0
-7 -4 -4 -10z"/>
<path d="M7030 2040 c0 -5 5 -10 11 -10 5 0 7 5 4 10 -3 6 -8 10 -11 10 -2 0
-4 -4 -4 -10z"/>
<path d="M7487 2035 c-5 -10 0 -15 14 -15 12 0 19 5 17 12 -6 18 -25 20 -31 3z"/>
<path d="M7448 1983 c6 -2 18 -2 25 0 6 3 1 5 -13 5 -14 0 -19 -2 -12 -5z"/>
<path d="M7420 1960 c0 -5 7 -7 15 -4 8 4 15 8 15 10 0 2 -7 4 -15 4 -8 0 -15
-4 -15 -10z"/>
<path d="M7408 1933 c7 -3 16 -2 19 1 4 3 -2 6 -13 5 -11 0 -14 -3 -6 -6z"/>
<path d="M7390 1910 c-13 -8 -12 -10 3 -10 9 0 17 5 17 10 0 12 -1 12 -20 0z"/>
<path d="M7490 1740 c0 -5 5 -10 11 -10 5 0 7 5 4 10 -3 6 -8 10 -11 10 -2 0
-4 -4 -4 -10z"/>
<path d="M7390 1732 c0 -5 14 -7 30 -4 17 2 30 6 30 8 0 2 -13 4 -30 4 -16 0
-30 -4 -30 -8z"/>
<path d="M7475 1710 c3 -5 8 -10 11 -10 2 0 4 5 4 10 0 6 -5 10 -11 10 -5 0
-7 -4 -4 -10z"/>
<path d="M7311 1698 c-90 -10 -91 -21 -1 -13 41 3 79 10 83 14 9 9 2 9 -82 -1z"/>
<path d="M7508 1653 c7 -3 16 -2 19 1 4 3 -2 6 -13 5 -11 0 -14 -3 -6 -6z"/>
</g>
</svg>
